<svg width="16" height="16" viewBox="0 0 16 16" fill="none" xmlns="http://www.w3.org/2000/svg">
<path d="M13.2686 3.18012C13.3451 3.12978 13.3582 3.02294 13.295 2.9566C11.9631 1.55868 10.0833 0.6875 8 0.6875C7.44731 0.6875 6.90895 0.748815 6.39133 0.865014C6.28573 0.888722 6.24307 1.01431 6.30932 1.0999C7.30604 2.38778 8.20578 3.75463 8.99755 5.18948C9.03345 5.25453 9.11145 5.2839 9.18103 5.25782C10.6274 4.71579 11.9969 4.01627 13.2686 3.18012Z" fill="#919191"/>
<path d="M1.00773 6.54535C0.916154 6.54133 0.850186 6.45614 0.870574 6.36677C1.37918 4.13737 2.90663 2.29581 4.93712 1.35792C4.99876 1.32945 5.07173 1.34719 5.11415 1.40021C6.14407 2.68764 7.07199 4.0601 7.88568 5.50536C7.93251 5.58852 7.89013 5.69348 7.7986 5.72053C5.93841 6.27042 3.96877 6.56555 1.92988 6.56555C1.62083 6.56555 1.3134 6.55877 1.00773 6.54535Z" fill="#919191"/>
<path d="M2.60033 12.662C2.54133 12.7356 2.42982 12.7388 2.36958 12.6662C1.31906 11.4001 0.6875 9.77379 0.6875 8C0.6875 7.93563 0.688332 7.87146 0.689985 7.80749C0.692139 7.72412 0.76337 7.66 0.846673 7.66408C1.20557 7.68166 1.56671 7.69055 1.92988 7.69055C4.17933 7.69055 6.34949 7.34957 8.39128 6.71649C8.46145 6.69473 8.53724 6.72649 8.57019 6.79217C8.80067 7.25163 9.0199 7.71771 9.22752 8.19004C9.26474 8.2747 9.21653 8.37224 9.12718 8.3961C6.51643 9.09305 4.24229 10.6138 2.60033 12.662Z" fill="#919191"/>
<path d="M11.2038 14.4516C11.217 14.518 11.1839 14.5852 11.1227 14.6141C10.1757 15.062 9.11709 15.3125 8 15.3125C6.25984 15.3125 4.66165 14.7047 3.40616 13.6897C3.34398 13.6395 3.33394 13.5488 3.38311 13.4858C4.92295 11.5111 7.09925 10.0583 9.60332 9.43525C9.67595 9.41718 9.75049 9.45633 9.77731 9.5262C10.3849 11.1089 10.8646 12.7549 11.2038 14.4516Z" fill="#919191"/>
<path d="M15.0306 9.41422C15.1083 9.43291 15.1569 9.51003 15.1396 9.58805C14.7605 11.2998 13.7816 12.786 12.4346 13.8148C12.3485 13.8806 12.2248 13.8325 12.2018 13.7267C11.878 12.2342 11.449 10.7809 10.9231 9.37504C10.8892 9.28435 10.9482 9.18537 11.0444 9.1743C11.476 9.12462 11.9149 9.09908 12.3598 9.09908C13.2801 9.09908 14.1744 9.20827 15.0306 9.41422Z" fill="#919191"/>
<path d="M13.9797 4.05857C14.0492 4.01239 14.1432 4.03097 14.1878 4.1015C14.9002 5.22995 15.3125 6.56682 15.3125 8C15.3125 8.04714 15.3121 8.09417 15.3112 8.14109C15.3094 8.2355 15.2201 8.30258 15.128 8.28176C14.2372 8.08034 13.3106 7.97408 12.3598 7.97408C11.7415 7.97408 11.1337 8.01897 10.5395 8.10566C10.4715 8.11559 10.4052 8.0787 10.3781 8.01551C10.1524 7.48842 9.91289 6.9687 9.65993 6.45679C9.62047 6.37694 9.65836 6.28034 9.74151 6.2484C11.2411 5.67237 12.6609 4.93537 13.9797 4.05857Z" fill="#919191"/>
</svg>
