<svg width="16" height="12" viewBox="0 0 16 12" fill="none" xmlns="http://www.w3.org/2000/svg">
<path fill-rule="evenodd" clip-rule="evenodd" d="M6.6402 5.52135C7.04068 5.3452 7.38867 5.05802 7.64738 4.69019C7.88519 4.29954 8.00332 3.84101 7.98573 3.37695C8.00115 2.95375 7.92302 2.53258 7.75754 2.14682C7.61851 1.81263 7.39533 1.52514 7.11231 1.31566C6.81225 1.09787 6.4715 0.950499 6.113 0.883455C5.68874 0.789462 5.25601 0.744867 4.82255 0.750469H0.35C0.225736 0.750469 0.125 0.851205 0.125 0.975469V10.9815C0.125 11.1058 0.225736 11.2065 0.35 11.2065H4.92484C5.36288 11.2069 5.79917 11.1482 6.22316 11.032C6.62505 10.9222 7.00579 10.7393 7.34837 10.4917C7.68022 10.2488 7.95044 9.92339 8.13523 9.54419C8.33974 9.12012 8.43987 8.64848 8.42637 8.17277C8.44127 7.58325 8.28474 7.00308 7.97786 6.51044C7.64784 6.015 7.15836 5.66341 6.60085 5.52135H6.6402ZM2.41248 2.4375C2.32964 2.4375 2.26248 2.50466 2.26248 2.5875V4.9125C2.26248 4.99534 2.32964 5.0625 2.41248 5.0625H4.51248C5.23736 5.0625 5.82498 4.47487 5.82498 3.75C5.82498 3.02513 5.23736 2.4375 4.51248 2.4375H2.41248ZM2.26248 6.525C2.26248 6.44216 2.32964 6.375 2.41248 6.375H4.60623C5.48644 6.375 6.19998 7.08855 6.19998 7.96875C6.19998 8.84895 5.48644 9.5625 4.60623 9.5625H2.41248C2.32964 9.5625 2.26248 9.49534 2.26248 9.4125V6.525Z" fill="#919191"/>
<path d="M10.5792 1.28241H14.1216C14.2446 1.28241 14.3449 1.38132 14.3465 1.50439L14.3562 2.22633C14.3579 2.35177 14.2567 2.45436 14.1312 2.45436H10.5792C10.4549 2.45436 10.3542 2.35362 10.3542 2.22936V1.50741C10.3542 1.38315 10.4549 1.28241 10.5792 1.28241Z" fill="#919191"/>
<path fill-rule="evenodd" clip-rule="evenodd" d="M12.4787 9.65224C12.8416 9.66398 13.199 9.55653 13.5016 9.34471C13.6965 9.21495 13.8517 9.02962 13.95 8.81112C13.976 8.75328 14.0318 8.71302 14.0952 8.71302H15.536C15.6337 8.71302 15.7054 8.805 15.6766 8.89834C15.4569 9.61016 15.0262 10.2306 14.4458 10.6663C13.8219 11.0699 13.0999 11.2722 12.3685 11.2481C11.8473 11.2575 11.3292 11.1615 10.842 10.9655C10.4051 10.7825 10.0126 10.4985 9.69321 10.1343C9.38451 9.76338 9.14909 9.33102 9.00078 8.86263C8.82617 8.3454 8.74088 7.79925 8.74898 7.25017C8.74418 6.70879 8.83215 6.17095 9.00865 5.66265C9.17311 5.19181 9.42756 4.76176 9.75616 4.39928C10.0857 4.0439 10.4789 3.76136 10.9128 3.56812C11.3868 3.36119 11.8951 3.25662 12.4079 3.26058C12.9531 3.25169 13.4925 3.37989 13.9816 3.63461C14.4212 3.87641 14.8032 4.22025 15.0989 4.64032C15.3928 5.07338 15.6064 5.56127 15.7284 6.07823C15.8546 6.62162 15.8997 7.18247 15.8622 7.74056H10.6532C10.6301 8.27654 10.8051 8.80103 11.141 9.20341C11.3228 9.37143 11.5354 9.49802 11.7655 9.57525C11.9957 9.65248 12.2385 9.67869 12.4787 9.65224ZM10.7 6.29911C10.7 6.34102 10.734 6.375 10.7759 6.375H13.8116C13.8535 6.375 13.8875 6.34102 13.8875 6.29911C13.8875 5.46082 13.2079 4.78125 12.3696 4.78125H12.2178C11.3795 4.78125 10.7 5.46082 10.7 6.29911Z" fill="#919191"/>
</svg>
