<svg width="24" height="24" viewBox="0 0 24 24" fill="none" xmlns="http://www.w3.org/2000/svg">
<g clip-path="url(#clip0_52_3821)">
<path d="M6.53057 5.53661L4.54204 3.54808C4.2674 3.27344 3.82242 3.27344 3.54778 3.54808C3.27314 3.82272 3.27314 4.26771 3.54778 4.54235L5.53631 6.53088C5.81095 6.80552 6.25593 6.80552 6.53057 6.53088C6.80521 6.25624 6.80521 5.81125 6.53057 5.53661Z" fill="#0064FF"/>
<path d="M4.18849 3.90164L6.17702 5.89017C6.2564 5.96955 6.2564 6.09795 6.17702 6.17733C6.09764 6.2567 5.96924 6.2567 5.88986 6.17733L3.90133 4.18879C3.82195 4.10942 3.82195 3.98101 3.90133 3.90164C3.98071 3.82226 4.10911 3.82226 4.18849 3.90164Z" stroke="white" stroke-opacity="0.1"/>
<path d="M3.5625 11.2969H0.703125C0.314484 11.2969 0 11.6114 0 12C0 12.3886 0.314484 12.7031 0.703125 12.7031H3.5625C3.95114 12.7031 4.26562 12.3886 4.26562 12C4.26562 11.6114 3.95114 11.2969 3.5625 11.2969Z" fill="#0064FF"/>
<path d="M0.703125 11.7969H3.5625C3.675 11.7969 3.76562 11.8875 3.76562 12C3.76562 12.1125 3.675 12.2031 3.5625 12.2031H0.703125C0.590627 12.2031 0.5 12.1125 0.5 12C0.5 11.8875 0.590627 11.7969 0.703125 11.7969Z" stroke="white" stroke-opacity="0.1"/>
<path d="M23.2969 11.2969H20.4375C20.0489 11.2969 19.7344 11.6114 19.7344 12C19.7344 12.3886 20.0489 12.7031 20.4375 12.7031H23.2969C23.6855 12.7031 24 12.3886 24 12C24 11.6114 23.6855 11.2969 23.2969 11.2969Z" fill="#0064FF"/>
<path d="M20.4375 11.7969H23.2969C23.4094 11.7969 23.5 11.8875 23.5 12C23.5 12.1125 23.4094 12.2031 23.2969 12.2031H20.4375C20.325 12.2031 20.2344 12.1125 20.2344 12C20.2344 11.8875 20.325 11.7969 20.4375 11.7969Z" stroke="white" stroke-opacity="0.1"/>
<path d="M20.4515 3.54808C20.1768 3.27344 19.7318 3.27344 19.4572 3.54808L17.4687 5.53661C17.194 5.81125 17.194 6.25624 17.4687 6.53088C17.7433 6.80552 18.1883 6.80552 18.4629 6.53088L20.4515 4.54235C20.7261 4.26771 20.7261 3.82277 20.4515 3.54808Z" fill="#0064FF"/>
<path d="M19.8108 3.90164C19.8901 3.82227 20.0185 3.82226 20.0979 3.90161L20.0979 3.90164C20.1773 3.98109 20.1773 4.10944 20.0979 4.18879L18.1094 6.17733C18.03 6.2567 17.9016 6.2567 17.8222 6.17733L17.4687 6.53088L17.8222 6.17733C17.7429 6.09795 17.7429 5.96955 17.8222 5.89017L19.8108 3.90164Z" stroke="white" stroke-opacity="0.1"/>
<path d="M12 0C11.6114 0 11.2969 0.314484 11.2969 0.703125V3.5625C11.2969 3.95114 11.6114 4.26562 12 4.26562C12.3886 4.26562 12.7031 3.95114 12.7031 3.5625V0.703125C12.7031 0.314484 12.3886 0 12 0Z" fill="#0064FF"/>
<path d="M11.7969 0.703125C11.7969 0.590627 11.8875 0.5 12 0.5C12.1125 0.5 12.2031 0.590627 12.2031 0.703125V3.5625C12.2031 3.675 12.1125 3.76562 12 3.76562C11.8875 3.76562 11.7969 3.675 11.7969 3.5625V0.703125Z" stroke="white" stroke-opacity="0.1"/>
<path d="M15.9371 7.03588C14.4043 5.8265 12.4214 5.39061 10.4808 5.85467C8.23082 6.37499 6.4168 8.16088 5.86832 10.3969C5.31988 12.6468 5.95269 14.9249 7.56983 16.514C8.14644 17.0906 8.48394 17.9953 8.48394 18.9234V19.0781C8.48394 19.4718 8.79327 19.7812 9.18707 19.7812H14.8121C15.2059 19.7812 15.5152 19.4718 15.5152 19.0781V18.9234C15.5152 18.0093 15.8668 17.0765 16.4855 16.4718C17.6668 15.2765 18.3277 13.6875 18.3277 12C18.3277 10.0594 17.4558 8.24525 15.9371 7.03588ZM11.9996 9.89061C10.9388 9.89061 10.1666 10.5943 9.96435 11.4088C9.87233 11.7793 9.49958 12.0157 9.11221 11.9224C8.73594 11.829 8.50588 11.4472 8.5993 11.071C8.94768 9.66472 10.2685 8.48436 11.9996 8.48436C12.3882 8.48436 12.7027 8.79885 12.7027 9.18749C12.7027 9.57613 12.3882 9.89061 11.9996 9.89061Z" fill="#0064FF"/>
<path d="M8.11403 10.9505C7.95403 11.5949 8.3476 12.2478 8.99178 12.4077L8.99178 12.4077L8.99515 12.4085C9.65322 12.567 10.2922 12.1628 10.4496 11.5293L10.4496 11.5293C10.5977 10.933 11.1734 10.3906 11.9996 10.3906C12.6644 10.3906 13.2027 9.85227 13.2027 9.18749C13.2027 8.5227 12.6644 7.98436 11.9996 7.98436C10.0308 7.98436 8.51583 9.3291 8.11403 10.9505ZM8.11403 10.9505L8.5993 11.071L8.11397 10.9507C8.11399 10.9507 8.11401 10.9506 8.11403 10.9505ZM10.5935 6.34182L10.5935 6.34183L10.5971 6.34096C12.3904 5.91213 14.2155 6.31487 15.6265 7.42775C17.0252 8.542 17.8277 10.2116 17.8277 12C17.8277 13.5532 17.2207 15.0151 16.1327 16.1174C15.4068 16.829 15.0152 17.8957 15.0152 18.9234V19.0781C15.0152 19.1957 14.9297 19.2812 14.8121 19.2812H9.18707C9.06946 19.2812 8.98394 19.1957 8.98394 19.0781V18.9234C8.98394 17.8863 8.60927 16.8463 7.92339 16.1604L7.92028 16.1574C6.43231 14.6952 5.84629 12.5991 6.354 10.5157C6.85744 8.46385 8.52655 6.81979 10.5935 6.34182Z" stroke="white" stroke-opacity="0.1"/>
<path d="M9.1875 21.1875V21.8906C9.1875 23.0538 10.1337 24 11.2969 24H12.7031C13.8663 24 14.8125 23.0538 14.8125 21.8906V21.1875H9.1875Z" fill="#0064FF"/>
<path d="M9.6875 21.8906V21.6875H14.3125V21.8906C14.3125 22.7776 13.5901 23.5 12.7031 23.5H11.2969C10.4099 23.5 9.6875 22.7776 9.6875 21.8906Z" stroke="white" stroke-opacity="0.1"/>
</g>
<defs>
<clipPath id="clip0_52_3821">
<rect width="24" height="24" fill="white"/>
</clipPath>
</defs>
</svg>
