<svg width="24" height="24" viewBox="0 0 24 24" fill="none" xmlns="http://www.w3.org/2000/svg">
<g id="Frame">
<g id="Group">
<g id="Group_2">
<path id="Vector" d="M20.25 1.125H15C14.793 1.125 14.625 1.29338 14.625 1.5V3H13.875C13.4614 3 13.125 3.33637 13.125 3.75C13.125 4.16363 13.4614 4.5 13.875 4.5H14.625V6.375H16.125C16.125 5.54775 16.7977 4.875 17.625 4.875C18.4523 4.875 19.125 5.54775 19.125 6.375H20.25C20.457 6.375 20.625 6.20662 20.625 6V1.5C20.625 1.29338 20.457 1.125 20.25 1.125Z" fill="#0064FF"/>
<path id="Vector_2" d="M10.1242 22.875C11.0295 22.875 11.787 22.2296 11.9614 21.375H8.28711C8.46148 22.2296 9.21898 22.875 10.1242 22.875Z" fill="#0064FF"/>
<path id="Vector_3" d="M7.1248 7.875C7.95205 7.875 8.6248 8.54775 8.6248 9.375H10.1248V8.25C9.29755 8.25 8.6248 7.57725 8.6248 6.75C8.6248 5.92275 9.29755 5.25 10.1248 5.25V3.375H9.86943C6.45468 3.375 3.64705 6.024 3.39355 9.375H5.6248C5.6248 8.54775 6.29755 7.875 7.1248 7.875Z" fill="#0064FF"/>
<path id="Vector_4" d="M7.49963 17.625H10.1246V14.625C9.29738 14.625 8.62463 13.9523 8.62463 13.125C8.62463 12.2977 9.29738 11.625 10.1246 11.625V10.125H7.87463V9.375C7.87463 8.96137 7.53826 8.625 7.12463 8.625C6.71101 8.625 6.37463 8.96137 6.37463 9.375V10.125H3.37988C3.45151 11.9843 4.30913 13.7115 5.75663 14.8961L7.49963 16.3223V17.625Z" fill="#0064FF"/>
<path id="Vector_5" d="M14.625 9.375C14.625 8.96137 14.2886 8.625 13.875 8.625C13.4614 8.625 13.125 8.96137 13.125 9.375V10.125H10.875V12.375H10.125C9.71137 12.375 9.375 12.7114 9.375 13.125C9.375 13.5386 9.71137 13.875 10.125 13.875H10.875V17.625H12.75V16.3223L14.493 14.8961C15.9405 13.7115 16.7977 11.9843 16.8698 10.125H14.625V9.375Z" fill="#0064FF"/>
<path id="Vector_6" d="M12.375 19.875H7.875C7.668 19.875 7.5 20.0434 7.5 20.25C7.5 20.4566 7.668 20.625 7.875 20.625H12.375C12.582 20.625 12.75 20.4566 12.75 20.25C12.75 20.0434 12.582 19.875 12.375 19.875Z" fill="#0064FF"/>
<path id="Vector_7" d="M13.125 18.375H7.125C6.918 18.375 6.75 18.5434 6.75 18.75C6.75 18.9566 6.918 19.125 7.125 19.125H7.875H12.375H13.125C13.332 19.125 13.5 18.9566 13.5 18.75C13.5 18.5434 13.332 18.375 13.125 18.375Z" fill="#0064FF"/>
</g>
</g>
</g>
</svg>
