<svg width="135" height="30" viewBox="0 0 135 30" fill="none" xmlns="http://www.w3.org/2000/svg">
<path d="M17.7146 11.3484C17.7146 14.9129 14.8343 17.8025 11.2773 17.8025V4.89758C14.8343 4.89758 17.7146 7.78716 17.7146 11.3484Z" fill="#CC1E06"/>
<path d="M4.84061 11.3483C4.84061 14.9128 7.72411 17.8024 11.2779 17.8024V22.6659C5.04928 22.6659 0 17.6059 0 11.361C0 5.11926 5.04928 0.0593262 11.2779 0.0593262V4.89747C7.72411 4.89747 4.84061 7.78705 4.84061 11.3483Z" fill="#FFAC0A"/>
<path d="M24.7598 11.4213C24.7598 15.2424 27.7666 17.9228 33.0435 17.9228C34.9532 17.9228 36.5372 17.5426 37.9157 16.9787V13.9433C36.5688 14.6309 35.1397 15.2044 33.2237 15.2044C30.1568 15.2044 28.244 13.7627 28.244 11.4023C28.244 9.09885 30.2359 7.6002 33.2617 7.6002C35.1872 7.6002 36.5688 8.18002 37.9157 8.85489V5.79421C36.5182 5.23657 34.9943 4.88171 33.0846 4.88171C27.9468 4.88171 24.7598 7.76496 24.7598 11.4213Z" fill="#333333"/>
<path d="M76.413 9.24776C76.413 6.68136 74.4812 5.1637 70.8389 5.1637H63.2412V17.644H66.7065V13.3699H69.2675L73.1121 17.6409H77.0738L72.9319 13.1259C74.9997 12.5999 76.413 11.2692 76.413 9.24776ZM70.001 10.9524H66.7033V7.67307H70.1591C72.1099 7.67307 72.9066 8.25289 72.9066 9.30479C72.9098 10.4074 71.9328 10.9524 70.001 10.9524Z" fill="#333333"/>
<path d="M80.5762 7.84111H85.812V17.641H89.2741V7.84111H94.5068V5.16064H80.5762V7.84111Z" fill="#333333"/>
<path d="M99.4199 17.641H111.479V15.0936H102.825V12.4892H109.247V10.1635H102.825V7.71121H111.479V5.16064H99.4199V17.641Z" fill="#333333"/>
<path d="M124.998 11.3073L130.588 5.16064H126.488L122.962 9.34293L119.428 5.16064H115.184L120.778 11.3454L115.026 17.641H119.127L122.811 13.5062L126.507 17.641H130.75L124.998 11.3073Z" fill="#333333"/>
<path d="M58.3434 11.399C58.3434 15.3373 55.2765 17.9798 50.6161 17.9798C45.9968 17.9798 42.9268 15.3373 42.9268 11.399C42.9268 7.46068 45.9936 4.81824 50.6161 4.81824C55.2765 4.81824 58.3434 7.47969 58.3434 11.399ZM46.7082 11.399C46.7082 13.7246 48.4282 15.0934 50.6193 15.0934C52.8261 15.0934 54.5651 13.7246 54.5651 11.399C54.5651 9.05439 52.8261 7.70782 50.6193 7.70782C48.4282 7.70465 46.7082 9.05439 46.7082 11.399Z" fill="#333333"/>
<path d="M26.4062 25.7805H28.9451C29.7861 25.7805 30.292 26.1259 30.292 26.7944C30.292 27.2443 30.1118 27.5612 29.6122 27.7227C30.1308 27.9319 30.3774 28.2012 30.3774 28.6796C30.3774 29.5161 29.7387 29.8171 28.8534 29.8171H26.4062V25.7805ZM28.6226 27.3964C28.9578 27.3964 29.0937 27.2918 29.0937 27.032C29.0937 26.7912 28.9451 26.6867 28.6226 26.6867H27.5982V27.3964H28.6226ZM28.6795 28.9014C29.0368 28.9014 29.1759 28.7873 29.1759 28.5212C29.1759 28.274 29.0368 28.1473 28.6795 28.1473H27.5982V28.9077L28.6795 28.9014Z" fill="#D0D0D0"/>
<path d="M33.1502 28.5275L31.3828 25.7805H32.7424L33.7383 27.3901H33.7952L34.8006 25.7805H36.1254L34.3643 28.5212V29.8202H33.1502V28.5275Z" fill="#D0D0D0"/>
<path d="M39.7051 25.7836H42.0827C43.0723 25.7836 43.5972 26.3539 43.5972 27.2886C43.5972 28.3436 42.9237 28.8284 41.991 28.8284H40.916V29.8201H39.7082V25.7836H39.7051ZM41.8677 27.8747C42.2408 27.8747 42.402 27.6339 42.402 27.3139C42.402 26.9495 42.225 26.7563 41.8551 26.7563H40.9097V27.8747H41.8677Z" fill="#D0D0D0"/>
<path d="M45.7852 25.7805H47.7296L49.1271 29.8171H47.8624L47.581 28.9806H45.918L45.6303 29.8171H44.3877L45.7852 25.7805ZM46.212 28.0776H47.2933L46.8602 26.8071H46.642L46.212 28.0776Z" fill="#D0D0D0"/>
<path d="M50.4229 25.7805H51.6338V28.7747H53.768L53.7237 29.8202H50.4229V25.7805Z" fill="#D0D0D0"/>
<path d="M54.793 27.8019C54.793 26.487 55.6846 25.6632 57.0947 25.6632C58.5048 25.6632 59.3965 26.487 59.3965 27.8019C59.3965 29.1168 58.5048 29.9405 57.0947 29.9405C55.6846 29.9405 54.793 29.1168 54.793 27.8019ZM58.195 27.8019C58.195 27.1048 57.7935 26.6898 57.0947 26.6898C56.396 26.6898 55.9944 27.1048 55.9944 27.8019C55.9944 28.4989 56.396 28.914 57.0884 28.914C57.784 28.914 58.195 28.4989 58.195 27.8019Z" fill="#D0D0D0"/>
<path d="M64.3789 25.7805H66.3234L67.7209 29.8171H66.4562L66.1748 28.9806H64.5117L64.224 29.8171H62.9814L64.3789 25.7805ZM64.8058 28.0776H65.8871L65.4539 26.8071H65.2358L64.8058 28.0776Z" fill="#D0D0D0"/>
<path d="M69.0176 25.7805H70.2254V28.7747H72.3595L72.3153 29.8202H69.0176V25.7805Z" fill="#D0D0D0"/>
<path d="M74.2812 26.8196H72.8711L72.9185 25.7836H76.8612L76.9055 26.8196H75.4953V29.8201H74.2812V26.8196Z" fill="#D0D0D0"/>
<path d="M78.0439 27.8019C78.0439 26.487 78.9356 25.6632 80.3457 25.6632C81.7558 25.6632 82.6474 26.487 82.6474 27.8019C82.6474 29.1168 81.7558 29.9405 80.3457 29.9405C78.9356 29.9405 78.0439 29.1168 78.0439 27.8019ZM81.446 27.8019C81.446 27.1048 81.0444 26.6898 80.3457 26.6898C79.6501 26.6898 79.2454 27.1048 79.2454 27.8019C79.2454 28.4989 79.6469 28.914 80.3394 28.914C81.0381 28.914 81.446 28.4989 81.446 27.8019Z" fill="#D0D0D0"/>
<path d="M86.4922 25.7805H87.7474L89.48 28.0713H89.4958V25.7805H90.6467V29.8202H89.4326L87.662 27.4724H87.6431V29.8202H86.4922V25.7805Z" fill="#D0D0D0"/>
<path d="M92.3154 25.7805H95.8376L95.885 26.7627H93.5169V27.3172H95.376V28.2107H93.5169V28.838H95.9514L95.9072 29.8202H92.3154V25.7805Z" fill="#D0D0D0"/>
<path d="M98.542 26.8196H97.1318L97.1793 25.7836H101.122L101.166 26.8196H99.7561V29.8201H98.542V26.8196Z" fill="#D0D0D0"/>
<path d="M102.275 25.7805H103.565L104.223 28.5846H104.286L105.137 25.7805H106.316L107.151 28.5846H107.214L107.859 25.7805H109.092L108.033 29.8202H106.449L105.712 27.3869H105.677L104.931 29.8202H103.341L102.275 25.7805Z" fill="#D0D0D0"/>
<path d="M110.23 27.8019C110.23 26.487 111.122 25.6632 112.532 25.6632C113.942 25.6632 114.834 26.487 114.834 27.8019C114.834 29.1168 113.942 29.9405 112.532 29.9405C111.122 29.9405 110.23 29.1168 110.23 27.8019ZM113.629 27.8019C113.629 27.1048 113.228 26.6898 112.529 26.6898C111.83 26.6898 111.429 27.1048 111.429 27.8019C111.429 28.4989 111.83 28.914 112.523 28.914C113.221 28.914 113.629 28.4989 113.629 27.8019Z" fill="#D0D0D0"/>
<path d="M116.275 25.7836H118.625C119.696 25.7836 120.218 26.2905 120.218 27.2315C120.218 27.8779 119.952 28.3151 119.434 28.5242L120.389 29.8233H119.02L118.277 28.7619H117.483V29.8233H116.275V25.7836ZM118.47 27.8113C118.871 27.8113 119.017 27.5864 119.017 27.2791C119.017 26.9717 118.871 26.7531 118.47 26.7531H117.486V27.8082H118.47V27.8113Z" fill="#D0D0D0"/>
<path d="M121.698 25.7805H122.906V27.2697H123.402L124.582 25.7805H125.941L125.944 25.7869L124.405 27.7196L126.033 29.8139L126.027 29.8202H124.617L123.396 28.2677H122.906V29.8202H121.698V25.7805Z" fill="#D0D0D0"/>
<path d="M127.083 29.5541V28.4484H127.089C127.762 28.7874 128.42 28.9553 128.989 28.9553C129.422 28.9553 129.641 28.8508 129.641 28.6512C129.641 28.4484 129.498 28.3977 128.632 28.2583C127.687 28.1094 127.061 27.8274 127.061 27.0131C127.061 26.259 127.721 25.676 129.018 25.676C129.536 25.676 130.077 25.7869 130.576 25.9992V27.0955L130.57 27.1018C130.093 26.8262 129.448 26.6519 128.929 26.6519C128.468 26.6519 128.284 26.7628 128.284 26.9466C128.284 27.1842 128.566 27.2064 129.274 27.3268C130.219 27.4883 130.845 27.7545 130.845 28.6068C130.845 29.269 130.349 29.9344 128.929 29.9344C128.23 29.928 127.671 29.7854 127.083 29.5541Z" fill="#D0D0D0"/>
<path d="M133.58 6.17436V6.13634C133.58 5.92406 133.41 5.77515 133.128 5.77515H132.632V6.92528H132.869V6.53556H133.131L133.331 6.92528H133.593L133.35 6.46269C133.486 6.431 133.58 6.31061 133.58 6.16803M132.869 5.98109H133.128C133.28 5.98109 133.343 6.03179 133.343 6.15219V6.16486C133.343 6.26625 133.28 6.33278 133.128 6.33278H132.869V5.98109Z" fill="#D0D0D0"/>
<path d="M133.08 5.16064C132.426 5.16064 131.895 5.69294 131.895 6.34879C131.895 7.00465 132.426 7.53694 133.08 7.53694C133.735 7.53694 134.266 7.00465 134.266 6.34879C134.278 5.70561 133.769 5.17332 133.128 5.16064C133.112 5.16064 133.096 5.16064 133.08 5.16064ZM133.08 7.36902C132.521 7.36902 132.065 6.91277 132.065 6.35196C132.065 5.79116 132.521 5.33491 133.08 5.33491C133.64 5.33491 134.095 5.79116 134.095 6.35196C134.114 6.89376 133.694 7.35001 133.15 7.36902C133.128 7.36902 133.102 7.36902 133.08 7.36902Z" fill="#D0D0D0"/>
</svg>
