<svg width="24" height="20" viewBox="0 0 24 20" fill="none" xmlns="http://www.w3.org/2000/svg">
<path d="M24 12.1176H14.8235V8.58821H24V12.1176ZM21.8823 11.0588C22.2722 11.0588 22.5882 10.7428 22.5882 10.3529C22.5882 9.96305 22.2722 9.64702 21.8823 9.64702C21.4925 9.64702 21.1764 9.96305 21.1764 10.3529C21.1764 10.7428 21.4925 11.0588 21.8823 11.0588ZM24 13.5294V16C24 16.7797 23.3679 17.4118 22.5882 17.4118H14.8235V13.5294H24ZM21.8823 16C22.2722 16 22.5882 15.684 22.5882 15.2941C22.5882 14.9042 22.2722 14.5882 21.8823 14.5882C21.4925 14.5882 21.1764 14.9042 21.1764 15.2941C21.1764 15.684 21.4925 16 21.8823 16ZM24 7.17647H14.8235V3.2941H22.5882C23.3679 3.2941 24 3.92616 24 4.70588V7.17647ZM21.8823 6.11761C22.2722 6.11761 22.5882 5.80158 22.5882 5.41172C22.5882 5.02186 22.2722 4.70583 21.8823 4.70583C21.4925 4.70583 21.1764 5.02186 21.1764 5.41172C21.1765 5.80158 21.4925 6.11761 21.8823 6.11761ZM10.5882 17.4118H4.58822C2.0542 17.4118 0 15.3575 0 12.8236C0 10.4588 1.78889 8.51194 4.08717 8.26233C4.82142 5.20167 7.43663 2.92064 10.5882 2.62158V17.4118ZM12 1.17647C12 0.786613 12.316 0.470581 12.7059 0.470581C13.0958 0.470581 13.4118 0.786613 13.4118 1.17647V18.8236C13.4118 19.2134 13.0958 19.5294 12.7059 19.5294C12.316 19.5294 12 19.2134 12 18.8235V1.17647Z" fill="#0064FF"/>
</svg>
