<svg width="18" height="16" viewBox="0 0 18 16" fill="none" xmlns="http://www.w3.org/2000/svg">
<path fill-rule="evenodd" clip-rule="evenodd" d="M14.9711 0.3125C14.3157 0.3125 13.7442 0.671458 13.4423 1.2035L10.7421 0.649614C10.4799 0.595826 10.2161 0.734272 10.1114 0.980624C9.80325 1.70557 9.34092 2.80428 8.95526 3.74439C8.78538 4.15848 8.62949 4.54397 8.50796 4.85401C7.06976 4.92378 5.73897 5.29688 4.64053 5.8928C4.22221 5.32436 3.54847 4.955 2.78762 4.955C1.51773 4.955 0.488281 5.98445 0.488281 7.25434C0.488281 8.16235 1.01422 8.94656 1.77772 9.32042C1.71254 9.60888 1.67838 9.90615 1.67838 10.2105C1.67838 11.7409 2.5421 13.0919 3.86935 14.0459C5.19719 15.0003 7.01262 15.5789 9.00074 15.5789C10.9889 15.5789 12.8043 15.0003 14.1321 14.0459C15.4594 13.0919 16.3231 11.7409 16.3231 10.2105C16.3231 9.90616 16.289 9.60891 16.2238 9.32046C16.9871 8.94669 17.5133 8.16252 17.5133 7.25434C17.5133 5.98445 16.4838 4.955 15.2139 4.955C14.4531 4.955 13.7793 5.32437 13.361 5.89282C12.3187 5.32736 11.0673 4.96252 9.71331 4.86708C9.79911 4.65349 9.89474 4.4184 9.99608 4.17137C10.3103 3.40545 10.6763 2.53213 10.9672 1.84422L13.2308 2.30854C13.3475 3.16539 14.0822 3.82566 14.9711 3.82566C15.9413 3.82566 16.7277 3.03921 16.7277 2.06908C16.7277 1.09895 15.9413 0.3125 14.9711 0.3125ZM14.3396 2.06908C14.3396 1.72027 14.6223 1.4375 14.9711 1.4375C15.32 1.4375 15.6027 1.72027 15.6027 2.06908C15.6027 2.41789 15.32 2.70066 14.9711 2.70066C14.6223 2.70066 14.3396 2.41789 14.3396 2.06908ZM15.8262 8.25683C15.4746 7.59441 14.9519 7.00179 14.3085 6.50631C14.5241 6.24566 14.8501 6.08 15.2139 6.08C15.8625 6.08 16.3883 6.60577 16.3883 7.25434C16.3883 7.67808 16.1636 8.05027 15.8262 8.25683ZM3.69306 6.50628C3.4774 6.24565 3.15149 6.08 2.78762 6.08C2.13905 6.08 1.61328 6.60577 1.61328 7.25434C1.61328 7.67818 1.83813 8.05029 2.17533 8.2568C2.52692 7.59437 3.04959 7.00175 3.69306 6.50628ZM11.6538 10.2105C12.2533 10.2105 12.7393 9.72451 12.7393 9.12499C12.7393 8.52547 12.2533 8.03946 11.6538 8.03946C11.0543 8.03946 10.5683 8.52547 10.5683 9.12499C10.5683 9.72451 11.0543 10.2105 11.6538 10.2105ZM7.42932 9.12499C7.42932 9.72451 6.94332 10.2105 6.3438 10.2105C5.74428 10.2105 5.25827 9.72451 5.25827 9.12499C5.25827 8.52547 5.74428 8.03946 6.3438 8.03946C6.94332 8.03946 7.42932 8.52547 7.42932 9.12499ZM6.63836 11.4716C6.37561 11.3059 6.02824 11.3845 5.8625 11.6473C5.69675 11.91 5.77539 12.2574 6.03815 12.4231L6.29684 12.5863C7.94703 13.6272 10.0486 13.6272 11.6987 12.5863L11.9574 12.4231C12.2202 12.2574 12.2988 11.91 12.1331 11.6473C11.9673 11.3845 11.62 11.3059 11.3572 11.4716L11.0985 11.6348C9.81505 12.4444 8.18054 12.4444 6.89705 11.6348L6.63836 11.4716Z" fill="#919191"/>
</svg>
