<svg width="8" height="14" viewBox="0 0 8 14" fill="none" xmlns="http://www.w3.org/2000/svg">
<path d="M5.65 0.15625C4.73003 0.15625 3.84774 0.521707 3.19722 1.17222C2.54671 1.82274 2.18125 2.70503 2.18125 3.625V5.55625H0.325C0.231802 5.55625 0.15625 5.6318 0.15625 5.725V8.275C0.15625 8.3682 0.231802 8.44375 0.325 8.44375H2.18125V13.675C2.18125 13.7682 2.2568 13.8438 2.35 13.8438H4.9C4.9932 13.8438 5.06875 13.7682 5.06875 13.675V8.44375H6.94144C7.01888 8.44375 7.08637 8.39105 7.10515 8.31593L7.74265 5.76593C7.76928 5.65942 7.68873 5.55625 7.57894 5.55625H5.06875V3.625C5.06875 3.47084 5.12999 3.323 5.23899 3.21399C5.348 3.10499 5.49584 3.04375 5.65 3.04375H7.6C7.6932 3.04375 7.76875 2.9682 7.76875 2.875V0.325C7.76875 0.231802 7.6932 0.15625 7.6 0.15625H5.65Z" fill="#919191"/>
</svg>
