<svg width="24" height="24" viewBox="0 0 24 24" fill="none" xmlns="http://www.w3.org/2000/svg">
<g clip-path="url(#clip0_52_3844)">
<path d="M6.07351 23.9796L6.51536 23.8562C6.94036 23.7374 7.1886 23.2966 7.06984 22.8715L2.01813 4.79342C1.94684 4.53829 1.77713 4.32193 1.54632 4.19194C1.31551 4.06195 1.04251 4.02898 0.787385 4.10027L0.730323 4.1162C0.199023 4.26465 -0.111344 4.81569 0.037095 5.34699L5.08893 23.4251C5.20769 23.8501 5.6485 24.0984 6.07351 23.9796Z" fill="#0064FF"/>
<path d="M1.53657 4.92797L1.53658 4.92798L6.58829 23.0061C6.63273 23.1652 6.53982 23.3302 6.38076 23.3746L5.93896 23.4981C5.93895 23.4981 5.93894 23.4981 5.93894 23.4981C5.77988 23.5425 5.61493 23.4496 5.57048 23.2906L5.08893 23.4251L5.57048 23.2905L0.518653 5.21245C0.518651 5.21244 0.518649 5.21243 0.518646 5.21242C0.444538 4.94712 0.599496 4.67196 0.864774 4.59779C0.864806 4.59778 0.864838 4.59777 0.86487 4.59776L0.921836 4.58186L0.921958 4.58182C1.04936 4.54622 1.18569 4.56269 1.30096 4.6276C1.41622 4.69252 1.50098 4.80056 1.53657 4.92797Z" stroke="white" stroke-opacity="0.1"/>
<path d="M23.863 11.3462C22.261 10.5474 20.7789 9.52783 19.4602 8.31726C19.3494 8.21579 19.306 8.06003 19.3485 7.91588C20.0019 5.44396 20.4871 2.93062 20.8009 0.39312C20.8506 -0.0289491 20.623 -0.153087 20.383 0.136568C15.674 5.76829 7.52641 -0.893777 2.67676 4.22484C2.73498 4.33386 2.78079 4.44906 2.81331 4.56829L6.09055 16.3035C10.9485 11.2469 19.0671 17.8676 23.7678 12.2483C24.0078 11.9586 24.0533 11.429 23.863 11.3462Z" fill="#0064FF"/>
<path d="M19.1221 8.68559C20.4295 9.88584 21.8935 10.9031 23.4737 11.7099C23.4676 11.7445 23.4576 11.7818 23.4436 11.8183C23.4243 11.8689 23.4019 11.9059 23.3834 11.9285C21.2237 14.5092 18.2982 14.3136 15.0376 13.9894C14.9378 13.9794 14.8376 13.9694 14.7372 13.9593C11.8992 13.6742 8.80897 13.3637 6.35199 15.3807L3.29569 4.43671C3.29554 4.43619 3.2954 4.43567 3.29526 4.43515C3.28656 4.40336 3.27714 4.3718 3.267 4.34048C5.44224 2.26369 8.28387 2.54687 11.4222 2.85961C11.4591 2.86329 11.4961 2.86698 11.5331 2.87066C14.5002 3.16604 17.7263 3.45703 20.2103 1.05631C19.9 3.32348 19.4512 5.56978 18.8665 7.7826C18.7741 8.10748 18.8728 8.45704 19.1221 8.68559Z" stroke="white" stroke-opacity="0.1"/>
</g>
<defs>
<clipPath id="clip0_52_3844">
<rect width="24" height="24" fill="white"/>
</clipPath>
</defs>
</svg>
