<svg width="24" height="24" viewBox="0 0 24 24" fill="none" xmlns="http://www.w3.org/2000/svg">
<g clip-path="url(#clip0_52_3855)">
<path d="M10.565 9.35895V11.6137C11.1228 11.5316 11.5284 11.4111 11.995 11.884C12.8909 12.7921 12.1433 14.3279 11.04 14.1657L10.565 14.0958V17.046C10.565 17.2013 10.439 17.3273 10.2837 17.3273H4.82855C3.0632 17.3273 1.62012 15.884 1.62012 14.1188V9.35895C1.70698 9.39416 1.80193 9.41359 1.90137 9.41359H4.3101C4.27644 9.72718 4.33778 10.0378 4.48976 10.3163C4.75091 10.7948 5.24371 11.1172 5.77549 11.212C6.37254 11.3184 6.96067 11.1347 7.39257 10.7085C7.83454 10.2725 7.90397 9.88569 7.86599 9.41359H10.2837C10.3831 9.41359 10.4781 9.39416 10.5649 9.35895L10.565 9.35895Z" fill="#0064FF"/>
<path d="M8.35603 9.91359C8.34203 10.017 8.31936 10.122 8.28508 10.2282C8.18789 10.5293 8.0101 10.8016 7.74376 11.0644L8.35603 9.91359ZM8.35603 9.91359H10.065V11.6137V12.1927L10.6378 12.1084C10.7073 12.0982 10.769 12.0886 10.8245 12.0799C11.0301 12.048 11.1515 12.0291 11.2735 12.0391C11.3762 12.0475 11.4844 12.0784 11.639 12.2352C11.9221 12.522 11.952 12.9055 11.8106 13.2226C11.6651 13.5486 11.3896 13.7117 11.1128 13.671C11.1128 13.671 11.1128 13.671 11.1128 13.671L10.6378 13.6011L10.065 13.5168V14.0958V16.8273H4.82855C3.33937 16.8273 2.12012 15.6079 2.12012 14.1188V9.91359H3.8286C3.86569 10.1365 3.94015 10.3529 4.05087 10.5558L8.35603 9.91359ZM5.68775 11.7042L5.68775 11.7042C5.024 11.5859 4.39274 11.1822 4.05088 10.5558L5.68775 11.7042ZM5.68775 11.7042C6.44521 11.8392 7.1968 11.6041 7.74373 11.0644L5.68775 11.7042Z" stroke="white" stroke-opacity="0.1"/>
<path d="M10.9795 -4.33163e-05H15.7394C17.5046 -4.33163e-05 18.9478 1.4432 18.9478 3.20843V8.66359C18.9478 8.81888 18.8219 8.94484 18.6666 8.94484H15.7163C15.7956 9.48364 15.9306 9.91133 15.4347 10.3854C14.51 11.2694 13.0043 10.5097 13.1643 9.41992L13.2342 8.94484H10.9795C11.0147 8.85797 11.0341 8.76302 11.0341 8.66359V6.25506C11.3414 6.28801 11.6466 6.22921 11.921 6.08349C12.4011 5.82854 12.7286 5.34166 12.8291 4.81238C12.9422 4.21666 12.7634 3.62714 12.3447 3.18915C12.078 2.91028 11.7673 2.73085 11.3796 2.69226C11.262 2.68058 11.1476 2.68274 11.0341 2.69231V0.28119C11.0341 0.181756 11.0147 0.0868062 10.9795 -6.10352e-05L10.9795 -4.33163e-05Z" fill="#0064FF"/>
<path d="M11.5341 2.20795C12.014 2.2813 12.3966 2.51999 12.7061 2.84358L12.7061 2.84364C13.2346 3.39644 13.464 4.14872 13.3203 4.90565C13.1947 5.56721 12.784 6.19134 12.1555 6.52508L11.5341 2.20795ZM11.5341 2.20795V0.499957H15.7394C17.2285 0.499957 18.4478 1.71933 18.4478 3.20843V8.44484L11.5341 2.20795Z" stroke="white" stroke-opacity="0.1"/>
<path d="M10.565 0.281235V3.23154C11.1038 3.15226 11.5314 3.01728 12.0055 3.51313C12.8895 4.43771 12.13 5.94352 11.04 5.78351L10.565 5.71359V8.66363C10.565 8.81893 10.439 8.94488 10.2837 8.94488H7.33366C7.41577 9.50268 7.5363 9.90828 7.06337 10.3749C6.15529 11.2709 4.61949 10.5232 4.7817 9.41996L4.85162 8.94488H1.90137C1.74607 8.94488 1.62012 8.81893 1.62012 8.66363V3.20847C1.62012 1.44334 3.06313 0 4.82855 0H10.2837C10.439 0 10.565 0.125954 10.565 0.281251L10.565 0.281235Z" fill="#0064FF"/>
<path d="M11.8082 4.84729C11.6614 5.1686 11.3861 5.32896 11.1127 5.28882L10.6378 5.21892L10.065 5.13461V5.71359V8.44488H7.33366H6.75468L6.83899 9.0177C6.84923 9.08721 6.85881 9.14891 6.86745 9.20446C6.89939 9.41003 6.91826 9.53145 6.90831 9.65342C6.89993 9.75609 6.86894 9.86433 6.7122 10.019C6.42535 10.302 6.04191 10.3319 5.72483 10.1905C5.39876 10.0451 5.23572 9.76949 5.27637 9.49277C5.27637 9.49275 5.27637 9.49272 5.27638 9.4927L5.34629 9.01769L5.4306 8.44488H4.85162H2.12012V3.20847C2.12012 1.71944 3.33931 0.5 4.82855 0.5H10.065V3.23154V3.8105L10.6377 3.72622C10.7161 3.71469 10.7843 3.70383 10.8449 3.69417C11.034 3.66407 11.1496 3.64566 11.2704 3.65513C11.3755 3.66338 11.4879 3.69527 11.6441 3.85866C11.9263 4.15387 11.9504 4.53609 11.8082 4.84729Z" stroke="white" stroke-opacity="0.1"/>
<path d="M16.0204 13.6531L18.8393 12.0255V12.0247C18.9778 11.9448 19.1515 11.9926 19.2324 12.1444L21.9504 16.852C22.8331 18.3811 22.3056 20.3513 20.7767 21.234L16.0524 23.9616V23.9623C15.9139 24.0423 15.7403 23.9945 15.6594 23.8427L14.0313 21.0228H14.0305C13.9441 20.8731 14.0058 20.6776 14.1947 20.6124C14.5757 20.4613 15.1294 20.3888 15.2418 19.9273C15.3481 19.4911 15.0977 19.0527 14.6643 18.9334C14.2067 18.8074 13.8492 19.2645 13.5321 19.5156L13.5329 19.5165C13.3892 19.6302 13.1882 19.575 13.1053 19.419L11.4779 16.6001H11.4771C11.3961 16.4599 11.4445 16.2867 11.6032 16.204L14.4171 14.5793L14.4165 14.5783C14.5663 14.4918 14.7617 14.5536 14.827 14.7424L15.1145 15.4674C15.3195 15.985 16.2918 15.9436 16.5038 15.218C16.5551 15.0424 16.5393 14.8573 16.4236 14.7112L15.9238 14.0798L15.9228 14.0806C15.8121 13.9407 15.8609 13.7307 16.0204 13.6531L16.0204 13.6531Z" fill="#0064FF"/>
<path d="M18.8996 12.568L16.4736 13.9688L16.8156 14.4008L16.8157 14.4009C17.056 14.7046 17.0684 15.0685 16.9837 15.3582L18.8996 12.568ZM18.8996 12.568L21.5173 17.102C22.2621 18.392 21.8163 20.0564 20.5267 20.801L20.7767 21.234L20.5267 20.801L15.9922 23.419L14.5966 21.002C14.6164 20.9955 14.6373 20.9887 14.6593 20.9815C14.7686 20.9456 14.9025 20.8998 15.0328 20.8382C15.2964 20.7135 15.6202 20.4865 15.7276 20.0457L18.8996 12.568ZM14.7971 18.4514C15.4977 18.6443 15.8962 19.3535 15.7276 20.0456L14.7971 18.4514ZM14.7971 18.4514C14.3587 18.3306 13.9971 18.5072 13.7594 18.673C13.6399 18.7564 13.5322 18.8504 13.4453 18.9282C13.4348 18.9375 13.4247 18.9465 13.415 18.9553L12.0207 16.5403L14.4466 15.1397L14.6496 15.6515L14.6497 15.6517L15.1145 15.4674L14.7971 18.4514Z" stroke="white" stroke-opacity="0.1"/>
</g>
<defs>
<clipPath id="clip0_52_3855">
<rect width="24" height="24" fill="white"/>
</clipPath>
</defs>
</svg>
