<svg width="24" height="24" viewBox="0 0 24 24" fill="none" xmlns="http://www.w3.org/2000/svg">
<g clip-path="url(#clip0_52_3850)">
<path d="M23.2808 14.63L21.0748 12.905C21.1028 12.639 21.1268 12.328 21.1268 11.999C21.1268 11.67 21.1038 11.359 21.0748 11.093L23.2828 9.36703C23.6928 9.04303 23.8048 8.46802 23.5438 7.98905L21.2498 4.02C21.0048 3.57202 20.4678 3.342 19.9228 3.543L17.3198 4.58798C16.8208 4.22798 16.2978 3.924 15.7568 3.681L15.3608 0.920016C15.2958 0.396 14.8398 0 14.3008 0H9.70083C9.16182 0 8.70685 0.396 8.64282 0.912L8.24583 3.68302C7.72182 3.91903 7.20685 4.21903 6.68583 4.59L4.07583 3.54202C3.58678 3.35302 3.00178 3.56498 2.75878 4.011L0.461816 7.98502C0.190831 8.44303 0.302816 9.03802 0.721831 9.37003L2.92782 11.095C2.8928 11.432 2.87583 11.725 2.87583 12C2.87583 12.2751 2.89285 12.568 2.92782 12.906L0.719816 14.632C0.3098 14.957 0.1988 15.532 0.4598 16.01L2.75382 19.979C2.99883 20.426 3.53082 20.658 4.0808 20.456L6.68382 19.411C7.18182 19.77 7.7048 20.074 8.24583 20.318L8.64183 23.078C8.7068 23.604 9.16182 24 9.70182 24H14.3018C14.8408 24 15.2968 23.604 15.3608 23.088L15.7578 20.318C16.2818 20.081 16.7958 19.782 17.3178 19.41L19.9278 20.458C20.0538 20.507 20.1848 20.532 20.3198 20.532C20.7078 20.532 21.0648 20.32 21.2448 19.99L23.5488 16C23.8048 15.532 23.6928 14.957 23.2808 14.63ZM12.0008 16C9.79482 16 8.00082 14.206 8.00082 12C8.00082 9.79402 9.79482 8.00002 12.0008 8.00002C14.2068 8.00002 16.0008 9.79402 16.0008 12C16.0008 14.206 14.2068 16 12.0008 16Z" fill="#0064FF"/>
<path d="M20.5776 12.8527L20.5486 13.1282L20.7668 13.2989L22.97 15.0216C22.9704 15.022 22.9708 15.0223 22.9712 15.0226C23.1857 15.1939 23.2511 15.4975 23.1125 15.7557L20.8118 19.74L20.8117 19.7399L20.8058 19.7506C20.715 19.9172 20.528 20.032 20.3198 20.032C20.2487 20.032 20.1798 20.0192 20.1112 19.9928L17.5041 18.946L17.2503 18.8441L17.0276 19.0028C16.5292 19.358 16.0432 19.6402 15.5517 19.8624L15.3018 19.9755L15.2628 20.2471L14.8659 23.0171L14.8658 23.0171L14.8646 23.0265C14.8329 23.2819 14.5988 23.5 14.3018 23.5H9.70182C9.40712 23.5 9.17122 23.2852 9.13806 23.0167L9.13815 23.0167L9.13676 23.007L8.74076 20.247L8.70175 19.9751L8.45138 19.8622C7.94214 19.6326 7.44814 19.3457 6.97621 19.0054L6.75295 18.8445L6.49754 18.947L3.90228 19.9889C3.59173 20.1 3.31992 19.9716 3.19227 19.7387L3.19238 19.7386L3.18671 19.7288L0.89614 15.7658C0.75004 15.4934 0.820648 15.191 1.02925 15.0248C1.02963 15.0245 1.03001 15.0242 1.0304 15.0239L3.23575 13.3L3.45362 13.1297L3.42516 12.8546C3.39153 12.5295 3.37583 12.2541 3.37583 12C3.37583 11.7459 3.39149 11.4705 3.42514 11.1467L3.45373 10.8716L3.23581 10.7012L1.03235 8.97814C1.03199 8.97786 1.03163 8.97757 1.03127 8.97729C0.807358 8.79899 0.74979 8.48022 0.892139 8.23962L0.892162 8.23963L0.894707 8.23523L3.19168 4.26121L3.19181 4.26129L3.19785 4.25021C3.31706 4.03141 3.63223 3.9082 3.89306 4.00743L6.49953 5.05399L6.75318 5.15584L6.97584 4.9973C7.47359 4.6429 7.96038 4.35996 8.45116 4.13891L8.7018 4.02602L8.74078 3.75392L9.13776 0.982908L9.13785 0.98292L9.13901 0.973574C9.17079 0.717467 9.40448 0.5 9.70083 0.5H14.3008C14.5953 0.5 14.8316 0.715687 14.8646 0.981579L14.8645 0.98159L14.8659 0.991003L15.2619 3.75199L15.3009 4.02436L15.5519 4.1371C16.0606 4.36559 16.5544 4.65232 17.0273 4.99347L17.2506 5.15457L17.5061 5.05199L20.1017 4.00999C20.4084 3.89971 20.6841 4.0277 20.8111 4.25992L20.811 4.25999L20.8169 4.2702L23.1074 8.23308C23.2536 8.5065 23.182 8.80878 22.9736 8.97408C22.9734 8.97429 22.9731 8.97451 22.9728 8.97473L20.7669 10.6991L20.5476 10.8705L20.5778 11.1471C20.6053 11.4004 20.6268 11.6926 20.6268 11.999C20.6268 12.3045 20.6045 12.5968 20.5776 12.8527ZM7.50082 12C7.50082 14.4821 9.51867 16.5 12.0008 16.5C14.4829 16.5 16.5008 14.4821 16.5008 12C16.5008 9.51787 14.4829 7.50002 12.0008 7.50002C9.51867 7.50002 7.50082 9.51787 7.50082 12Z" stroke="white" stroke-opacity="0.1"/>
</g>
<defs>
<clipPath id="clip0_52_3850">
<rect width="24" height="24" fill="white"/>
</clipPath>
</defs>
</svg>
