<svg width="24" height="22" viewBox="0 0 24 22" fill="none" xmlns="http://www.w3.org/2000/svg">
<path d="M17.25 0.5625H13.5C13.1893 0.5625 12.9375 0.81434 12.9375 1.125V2.25C12.9375 2.56066 13.1893 2.8125 13.5 2.8125H17.25C17.5607 2.8125 17.8125 2.56066 17.8125 2.25V1.125C17.8125 0.81434 17.5607 0.5625 17.25 0.5625Z" fill="#0064FF"/>
<path d="M6.375 8.8125H2.625C2.47582 8.8125 2.33274 8.87176 2.22725 8.97725C2.12176 9.08274 2.0625 9.22582 2.0625 9.375C2.0625 9.52418 2.12176 9.66726 2.22725 9.77275C2.33274 9.87824 2.47582 9.9375 2.625 9.9375H6.375C6.52418 9.9375 6.66726 9.87824 6.77275 9.77275C6.87824 9.66726 6.9375 9.52418 6.9375 9.375C6.9375 9.22582 6.87824 9.08274 6.77275 8.97725C6.66726 8.87176 6.52418 8.8125 6.375 8.8125Z" fill="#0064FF"/>
<path d="M6.1875 13.875C6.1875 13.7258 6.12824 13.5827 6.02275 13.4773C5.91726 13.3718 5.77418 13.3125 5.625 13.3125H1.875C1.72582 13.3125 1.58274 13.3718 1.47725 13.4773C1.37176 13.5827 1.3125 13.7258 1.3125 13.875C1.3125 14.0242 1.37176 14.1673 1.47725 14.2727C1.58274 14.3782 1.72582 14.4375 1.875 14.4375H5.625C5.77418 14.4375 5.91726 14.3782 6.02275 14.2727C6.12824 14.1673 6.1875 14.0242 6.1875 13.875Z" fill="#0064FF"/>
<path d="M6 15.5625H3.375C3.22582 15.5625 3.08274 15.6218 2.97725 15.7273C2.87176 15.8327 2.8125 15.9758 2.8125 16.125C2.8125 16.2742 2.87176 16.4173 2.97725 16.5227C3.08274 16.6282 3.22582 16.6875 3.375 16.6875H6C6.14918 16.6875 6.29226 16.6282 6.39775 16.5227C6.50324 16.4173 6.5625 16.2742 6.5625 16.125C6.5625 15.9758 6.50324 15.8327 6.39775 15.7273C6.29226 15.6218 6.14918 15.5625 6 15.5625Z" fill="#0064FF"/>
<path d="M6.1875 11.625C6.1875 11.4758 6.12824 11.3327 6.02275 11.2273C5.91726 11.1218 5.77418 11.0625 5.625 11.0625H0.75C0.600816 11.0625 0.457742 11.1218 0.352252 11.2273C0.246763 11.3327 0.1875 11.4758 0.1875 11.625C0.1875 11.7742 0.246763 11.9173 0.352252 12.0227C0.457742 12.1282 0.600816 12.1875 0.75 12.1875H5.625C5.77418 12.1875 5.91726 12.1282 6.02275 12.0227C6.12824 11.9173 6.1875 11.7742 6.1875 11.625Z" fill="#0064FF"/>
<path d="M15.375 12.75V6.375C11.8598 6.375 9 9.2348 9 12.75C9 16.2652 11.8598 19.125 15.375 19.125C18.8902 19.125 21.75 16.2652 21.75 12.75H15.375Z" fill="#0064FF"/>
<path d="M21.5446 7.00092L22.1477 6.39773C22.2007 6.34566 22.2428 6.28362 22.2716 6.21519C22.3004 6.14676 22.3154 6.0733 22.3157 5.99905C22.316 5.9248 22.3016 5.85122 22.2734 5.78256C22.2451 5.7139 22.2035 5.65152 22.151 5.59901C22.0985 5.54651 22.0361 5.50492 21.9674 5.47664C21.8988 5.44837 21.8252 5.43396 21.751 5.43427C21.6767 5.43457 21.6032 5.44957 21.5348 5.4784C21.4664 5.50724 21.4043 5.54933 21.3523 5.60227L20.7245 6.22997C19.5156 5.23408 18.0524 4.59591 16.5 4.3875V3.375H14.25V4.3875C12.6977 4.59583 11.2344 5.2339 10.0255 6.22969L9.39774 5.60198C9.34566 5.54905 9.28362 5.50696 9.21519 5.47812C9.14677 5.44929 9.07331 5.43429 8.99905 5.43398C8.9248 5.43368 8.85122 5.44808 8.78256 5.47636C8.7139 5.50464 8.65152 5.54623 8.59902 5.59873C8.54651 5.65124 8.50492 5.71362 8.47664 5.78228C8.44837 5.85094 8.43397 5.92452 8.43427 5.99877C8.43457 6.07302 8.44957 6.14648 8.47841 6.21491C8.50724 6.28334 8.54934 6.34538 8.60227 6.39745L9.20541 7.00064C7.74677 8.55956 6.93594 10.6151 6.9375 12.75C6.9375 17.4024 10.7226 21.1875 15.375 21.1875C20.0274 21.1875 23.8125 17.4024 23.8125 12.75C23.814 10.6152 23.0032 8.55977 21.5446 7.00092ZM15.375 19.6875C14.0029 19.6875 12.6616 19.2806 11.5207 18.5183C10.3799 17.756 9.49067 16.6725 8.96559 15.4049C8.4405 14.1372 8.30312 12.7423 8.5708 11.3966C8.83849 10.0508 9.49922 8.81467 10.4694 7.84445C11.4397 6.87422 12.6758 6.21349 14.0216 5.9458C15.3673 5.67812 16.7622 5.8155 18.0299 6.34059C19.2975 6.86567 20.381 7.75487 21.1433 8.89573C21.9056 10.0366 22.3125 11.3779 22.3125 12.75C22.3125 13.661 22.1331 14.5632 21.7844 15.4049C21.4358 16.2466 20.9248 17.0113 20.2806 17.6556C19.6364 18.2998 18.8716 18.8108 18.0299 19.1594C17.1882 19.5081 16.286 19.6875 15.375 19.6875Z" fill="#0064FF"/>
</svg>
