<svg width="100" height="100" viewBox="0 0 100 100" fill="none" xmlns="http://www.w3.org/2000/svg">
<g filter="url(#filter0_d_16_266)">
<rect x="24" y="16" width="52" height="52" rx="10" fill="white" shape-rendering="crispEdges"/>
<path d="M55.25 30.5625H51.5C51.1893 30.5625 50.9375 30.8143 50.9375 31.125V32.25C50.9375 32.5607 51.1893 32.8125 51.5 32.8125H55.25C55.5607 32.8125 55.8125 32.5607 55.8125 32.25V31.125C55.8125 30.8143 55.5607 30.5625 55.25 30.5625Z" fill="#0064FF"/>
<path d="M44.375 38.8125H40.625C40.4758 38.8125 40.3327 38.8718 40.2273 38.9773C40.1218 39.0827 40.0625 39.2258 40.0625 39.375C40.0625 39.5242 40.1218 39.6673 40.2273 39.7727C40.3327 39.8782 40.4758 39.9375 40.625 39.9375H44.375C44.5242 39.9375 44.6673 39.8782 44.7727 39.7727C44.8782 39.6673 44.9375 39.5242 44.9375 39.375C44.9375 39.2258 44.8782 39.0827 44.7727 38.9773C44.6673 38.8718 44.5242 38.8125 44.375 38.8125Z" fill="#0064FF"/>
<path d="M44.1875 43.875C44.1875 43.7258 44.1282 43.5827 44.0227 43.4773C43.9173 43.3718 43.7742 43.3125 43.625 43.3125H39.875C39.7258 43.3125 39.5827 43.3718 39.4773 43.4773C39.3718 43.5827 39.3125 43.7258 39.3125 43.875C39.3125 44.0242 39.3718 44.1673 39.4773 44.2727C39.5827 44.3782 39.7258 44.4375 39.875 44.4375H43.625C43.7742 44.4375 43.9173 44.3782 44.0227 44.2727C44.1282 44.1673 44.1875 44.0242 44.1875 43.875Z" fill="#0064FF"/>
<path d="M44 45.5625H41.375C41.2258 45.5625 41.0827 45.6218 40.9773 45.7273C40.8718 45.8327 40.8125 45.9758 40.8125 46.125C40.8125 46.2742 40.8718 46.4173 40.9773 46.5227C41.0827 46.6282 41.2258 46.6875 41.375 46.6875H44C44.1492 46.6875 44.2923 46.6282 44.3977 46.5227C44.5032 46.4173 44.5625 46.2742 44.5625 46.125C44.5625 45.9758 44.5032 45.8327 44.3977 45.7273C44.2923 45.6218 44.1492 45.5625 44 45.5625Z" fill="#0064FF"/>
<path d="M44.1875 41.625C44.1875 41.4758 44.1282 41.3327 44.0227 41.2273C43.9173 41.1218 43.7742 41.0625 43.625 41.0625H38.75C38.6008 41.0625 38.4577 41.1218 38.3523 41.2273C38.2468 41.3327 38.1875 41.4758 38.1875 41.625C38.1875 41.7742 38.2468 41.9173 38.3523 42.0227C38.4577 42.1282 38.6008 42.1875 38.75 42.1875H43.625C43.7742 42.1875 43.9173 42.1282 44.0227 42.0227C44.1282 41.9173 44.1875 41.7742 44.1875 41.625Z" fill="#0064FF"/>
<path d="M53.375 42.75V36.375C49.8598 36.375 47 39.2348 47 42.75C47 46.2652 49.8598 49.125 53.375 49.125C56.8902 49.125 59.75 46.2652 59.75 42.75H53.375Z" fill="#0064FF"/>
<path d="M59.5446 37.0009L60.1477 36.3977C60.2007 36.3457 60.2428 36.2836 60.2716 36.2152C60.3004 36.1468 60.3154 36.0733 60.3157 35.9991C60.316 35.9248 60.3016 35.8512 60.2734 35.7826C60.2451 35.7139 60.2035 35.6515 60.151 35.599C60.0985 35.5465 60.0361 35.5049 59.9674 35.4766C59.8988 35.4484 59.8252 35.434 59.751 35.4343C59.6767 35.4346 59.6032 35.4496 59.5348 35.4784C59.4664 35.5072 59.4043 35.5493 59.3523 35.6023L58.7245 36.23C57.5156 35.2341 56.0524 34.5959 54.5 34.3875V33.375H52.25V34.3875C50.6977 34.5958 49.2344 35.2339 48.0255 36.2297L47.3977 35.602C47.3457 35.5491 47.2836 35.507 47.2152 35.4781C47.1468 35.4493 47.0733 35.4343 46.9991 35.434C46.9248 35.4337 46.8512 35.4481 46.7826 35.4764C46.7139 35.5046 46.6515 35.5462 46.599 35.5987C46.5465 35.6512 46.5049 35.7136 46.4766 35.7823C46.4484 35.8509 46.434 35.9245 46.4343 35.9988C46.4346 36.073 46.4496 36.1465 46.4784 36.2149C46.5072 36.2833 46.5493 36.3454 46.6023 36.3975L47.2054 37.0006C45.7468 38.5596 44.9359 40.6151 44.9375 42.75C44.9375 47.4024 48.7226 51.1875 53.375 51.1875C58.0274 51.1875 61.8125 47.4024 61.8125 42.75C61.814 40.6152 61.0032 38.5598 59.5446 37.0009ZM53.375 49.6875C52.0029 49.6875 50.6616 49.2806 49.5207 48.5183C48.3799 47.756 47.4907 46.6725 46.9656 45.4049C46.4405 44.1372 46.3031 42.7423 46.5708 41.3966C46.8385 40.0508 47.4992 38.8147 48.4694 37.8444C49.4397 36.8742 50.6758 36.2135 52.0216 35.9458C53.3673 35.6781 54.7622 35.8155 56.0299 36.3406C57.2975 36.8657 58.381 37.7549 59.1433 38.8957C59.9056 40.0366 60.3125 41.3779 60.3125 42.75C60.3125 43.661 60.1331 44.5632 59.7844 45.4049C59.4358 46.2466 58.9248 47.0113 58.2806 47.6556C57.6364 48.2998 56.8716 48.8108 56.0299 49.1594C55.1882 49.5081 54.286 49.6875 53.375 49.6875Z" fill="#0064FF"/>
</g>
<defs>
<filter id="filter0_d_16_266" x="0" y="0" width="100" height="100" filterUnits="userSpaceOnUse" color-interpolation-filters="sRGB">
<feFlood flood-opacity="0" result="BackgroundImageFix"/>
<feColorMatrix in="SourceAlpha" type="matrix" values="0 0 0 0 0 0 0 0 0 0 0 0 0 0 0 0 0 0 127 0" result="hardAlpha"/>
<feOffset dy="8"/>
<feGaussianBlur stdDeviation="12"/>
<feComposite in2="hardAlpha" operator="out"/>
<feColorMatrix type="matrix" values="0 0 0 0 0.533333 0 0 0 0 0.533333 0 0 0 0 0.533333 0 0 0 0.15 0"/>
<feBlend mode="normal" in2="BackgroundImageFix" result="effect1_dropShadow_16_266"/>
<feBlend mode="normal" in="SourceGraphic" in2="effect1_dropShadow_16_266" result="shape"/>
</filter>
</defs>
</svg>
