<svg width="24" height="20" viewBox="0 0 24 20" fill="none" xmlns="http://www.w3.org/2000/svg">
<path d="M5.19749 16.51C5.23498 16.5175 5.27252 16.5175 5.31001 16.5175H5.955V13.045C5.955 12.055 6.72748 11.2375 7.70251 11.1775C7.89001 8.9725 9.75 7.2325 12 7.2325C14.25 7.2325 16.11 8.97251 16.2975 11.1775C17.2725 11.2375 18.045 12.055 18.045 13.045V16.5175H18.69C18.7275 16.5175 18.765 16.5175 18.8025 16.51C21.3375 16.135 23.25 13.9075 23.25 11.3275C23.25 8.55997 21.09 6.28749 18.3675 6.09249C18.21 4.66752 17.5725 3.34 16.53 2.29749C15.315 1.08249 13.7025 0.422485 12 0.422485C8.715 0.422485 6 2.90499 5.63251 6.09249C2.91 6.28749 0.75 8.55997 0.75 11.3275C0.75 13.9075 2.66249 16.135 5.19749 16.51Z" fill="#0064FF"/>
<path d="M12.0001 8.35751C10.2451 8.35751 8.81258 9.78999 8.81258 11.545V12.295H7.83008C7.41759 12.295 7.08008 12.6325 7.08008 13.045V18.8275C7.08008 19.2475 7.41759 19.5775 7.83008 19.5775H16.1701C16.5826 19.5775 16.9201 19.2475 16.9201 18.8275V13.045C16.9201 12.6325 16.5826 12.295 16.1701 12.295H15.1876V11.545C15.1876 9.78999 13.7551 8.35751 12.0001 8.35751ZM13.6876 12.295H10.3126V11.545C10.3126 10.615 11.0701 9.85751 12.0001 9.85751C12.9301 9.85751 13.6876 10.615 13.6876 11.545V12.295Z" fill="#0064FF"/>
</svg>
