<svg width="20" height="20" viewBox="0 0 20 20" fill="none" xmlns="http://www.w3.org/2000/svg">
<path d="M17.4195 15.528V13.232C17.4195 13.012 17.2395 12.832 17.0195 12.832H10.3995V11.468C10.5835 11.456 10.7755 11.432 10.9755 11.396C11.0835 11.38 11.1835 11.316 11.2435 11.224C11.3035 11.132 11.3235 11.02 11.2995 10.912C11.2075 10.512 11.5075 10.032 12.0035 9.79201C12.4955 9.55601 13.0595 9.62001 13.3155 9.94001C13.3835 10.028 13.4835 10.084 13.5915 10.092C13.7035 10.1 13.8115 10.064 13.8955 9.99201C14.3915 9.54801 14.8035 9.03201 15.1195 8.46401C15.1715 8.368 15.1835 8.25201 15.1475 8.14801C15.1155 8.04401 15.0395 7.95601 14.9395 7.90801C14.5675 7.73201 14.3755 7.196 14.4995 6.66001C14.6195 6.12801 15.0195 5.728 15.4315 5.728H15.4355C15.5435 5.728 15.6475 5.684 15.7235 5.604C15.7995 5.524 15.8395 5.416 15.8355 5.304C15.7955 4.636 15.6515 3.992 15.4035 3.396C15.3635 3.292 15.2795 3.212 15.1755 3.176C15.0715 3.136 14.9555 3.14 14.8595 3.188C14.4875 3.372 13.9515 3.188 13.6075 2.756C13.2675 2.328 13.2035 1.764 13.4595 1.444C13.5315 1.356 13.5595 1.248 13.5475 1.136C13.5315 1.028 13.4715 0.928004 13.3835 0.864004C12.8435 0.484004 12.2515 0.196004 11.6195 0.0160042C11.5115 -0.0159958 11.3995 4.17235e-06 11.3035 0.0560042C11.2075 0.112004 11.1395 0.204004 11.1155 0.312004C11.0275 0.716004 10.5475 1.016 9.99954 1.016C9.45154 1.016 8.96754 0.716004 8.87954 0.312004C8.85554 0.204004 8.79154 0.112004 8.69554 0.0560042C8.59954 4.17235e-06 8.48354 -0.0159958 8.37954 0.0160042C7.74754 0.196004 7.15554 0.484004 6.61554 0.864004C6.52754 0.928004 6.46754 1.028 6.45154 1.136C6.43554 1.248 6.46754 1.356 6.53554 1.444C6.79554 1.764 6.73154 2.328 6.39154 2.756C6.04754 3.184 5.51154 3.372 5.13954 3.188C5.03954 3.14 4.92354 3.136 4.82354 3.176C4.71954 3.212 4.63554 3.292 4.59154 3.396C4.34754 3.992 4.19954 4.636 4.16354 5.304C4.15954 5.416 4.19554 5.524 4.27154 5.604C4.34754 5.684 4.45554 5.728 4.56354 5.728H4.56754C4.97554 5.728 5.37554 6.12801 5.49954 6.66001C5.61954 7.196 5.43154 7.73201 5.05954 7.90801C4.95954 7.95601 4.88354 8.04401 4.84754 8.14801C4.81554 8.25201 4.82754 8.368 4.87954 8.46401C5.19554 9.03201 5.60754 9.54801 6.10354 9.99201C6.18354 10.064 6.29154 10.104 6.40354 10.092C6.51554 10.084 6.61554 10.028 6.68354 9.94001C6.93954 9.62001 7.50354 9.55601 7.99554 9.79201C8.49154 10.032 8.79154 10.512 8.69954 10.912C8.67154 11.02 8.69554 11.132 8.75554 11.224C8.81554 11.316 8.91154 11.38 9.01954 11.396C9.22354 11.432 9.41554 11.456 9.59954 11.468V12.832H2.97954C2.75954 12.832 2.57954 13.012 2.57954 13.232V15.528C1.52754 15.72 0.727539 16.64 0.727539 17.744C0.727539 18.988 1.73554 20 2.97954 20C4.22354 20 5.23554 18.988 5.23554 17.744C5.23554 16.64 4.43154 15.72 3.37954 15.528V13.632H9.59954V15.528C8.54754 15.72 7.74354 16.64 7.74354 17.744C7.74354 18.988 8.75554 20 9.99954 20C11.2435 20 12.2515 18.988 12.2515 17.744C12.2515 16.64 11.4515 15.72 10.3995 15.528V13.632H16.6195V15.528C15.5675 15.72 14.7635 16.64 14.7635 17.744C14.7635 18.988 15.7755 20 17.0195 20C18.2595 20 19.2715 18.988 19.2715 17.744C19.2715 16.64 18.4715 15.72 17.4195 15.528ZM7.79154 5.636C7.79154 4.416 8.78354 3.428 9.99954 3.428C11.2155 3.428 12.2075 4.416 12.2075 5.636C12.2075 6.85201 11.2155 7.84001 9.99954 7.84001C8.78354 7.84001 7.79154 6.85201 7.79154 5.636Z" fill="#0064FF"/>
</svg>
