<svg width="14" height="14" viewBox="0 0 14 14" fill="none" xmlns="http://www.w3.org/2000/svg">
<path d="M6.99953 4.56253C5.65333 4.56253 4.56203 5.65384 4.56203 7.00003C4.56203 8.34623 5.65333 9.43753 6.99953 9.43753C8.34572 9.43753 9.43703 8.34623 9.43703 7.00003C9.43703 5.65384 8.34572 4.56253 6.99953 4.56253Z" fill="#919191"/>
<path fill-rule="evenodd" clip-rule="evenodd" d="M3.07668 0.311136C5.66277 0.0221019 8.3363 0.0221019 10.9224 0.311136C12.3462 0.470266 13.4946 1.5921 13.6617 3.02089C13.9709 5.66464 13.9709 8.33543 13.6617 10.9792C13.4946 12.408 12.3462 13.5298 10.9224 13.6889C8.3363 13.978 5.66277 13.978 3.07668 13.6889C1.65288 13.5298 0.504487 12.408 0.337377 10.9792C0.028166 8.33543 0.028166 5.66464 0.337377 3.02089C0.504487 1.5921 1.65288 0.470266 3.07668 0.311136ZM10.7495 2.50003C10.3353 2.50003 9.99953 2.83582 9.99953 3.25003C9.99953 3.66425 10.3353 4.00003 10.7495 4.00003C11.1637 4.00003 11.4995 3.66425 11.4995 3.25003C11.4995 2.83582 11.1637 2.50003 10.7495 2.50003ZM3.43703 7.00003C3.43703 5.03252 5.03201 3.43753 6.99953 3.43753C8.96704 3.43753 10.562 5.03252 10.562 7.00003C10.562 8.96755 8.96704 10.5625 6.99953 10.5625C5.03201 10.5625 3.43703 8.96755 3.43703 7.00003Z" fill="#919191"/>
</svg>
