<svg width="20" height="18" viewBox="0 0 20 18" fill="none" xmlns="http://www.w3.org/2000/svg">
<path d="M11.0041 2.028C10.9041 1.98 10.7881 1.972 10.6841 2.012C10.5801 2.052 10.5001 2.132 10.4561 2.232C10.3201 2.568 10.2361 2.924 10.2161 3.3C10.2121 3.408 10.2521 3.516 10.3281 3.596C10.4001 3.676 10.5081 3.72 10.6161 3.72H10.6201C10.7281 3.72 10.8721 3.852 10.9201 4.064C10.9721 4.276 10.8921 4.456 10.7961 4.504C10.6961 4.548 10.6201 4.636 10.5841 4.74C10.5521 4.848 10.5641 4.96 10.6161 5.06C10.7921 5.376 11.0201 5.66 11.2961 5.908C11.3801 5.984 11.4881 6.02 11.6001 6.008C11.7081 6 11.8081 5.944 11.8801 5.86C11.9441 5.776 12.1401 5.74 12.3361 5.836C12.5321 5.928 12.6241 6.1 12.6001 6.208C12.5761 6.316 12.5961 6.428 12.6561 6.52C12.7201 6.612 12.8161 6.676 12.9241 6.692C13.1161 6.724 13.2961 6.74 13.4681 6.74C13.6401 6.74 13.8201 6.724 14.0121 6.692C14.1201 6.676 14.2201 6.612 14.2801 6.52C14.3401 6.428 14.3601 6.316 14.3361 6.208C14.3121 6.1 14.4041 5.928 14.6001 5.836C14.7961 5.74 14.9921 5.772 15.0601 5.86C15.1281 5.944 15.2281 6 15.3361 6.008C15.4481 6.02 15.5561 5.984 15.6401 5.908C15.9161 5.66 16.1441 5.376 16.3201 5.06C16.3761 4.96 16.3841 4.848 16.3521 4.74C16.3161 4.636 16.2401 4.548 16.1401 4.504C16.0641 4.468 16.0001 4.348 16.0001 4.192C16.0001 4.152 16.0041 4.108 16.0161 4.064C16.0641 3.852 16.2081 3.72 16.3201 3.72C16.4281 3.72 16.5361 3.676 16.6121 3.596C16.6881 3.516 16.7241 3.408 16.7201 3.3C16.7001 2.924 16.6201 2.568 16.4801 2.232C16.4361 2.132 16.3561 2.052 16.2521 2.012C16.1481 1.972 16.0321 1.98 15.9321 2.028C15.8361 2.076 15.6481 2.024 15.5121 1.852C15.3761 1.684 15.3641 1.488 15.4321 1.4C15.5041 1.316 15.5321 1.204 15.5161 1.096C15.5041 0.988003 15.4441 0.888003 15.3521 0.824003C15.0521 0.612003 14.7241 0.452003 14.3721 0.352003C14.2641 0.320003 14.1521 0.336003 14.0561 0.392003C13.9601 0.448003 13.8921 0.540003 13.8681 0.648003C13.8441 0.756003 13.6841 0.868003 13.4681 0.868003C13.2521 0.868003 13.0921 0.756003 13.0681 0.648003C13.0441 0.540003 12.9761 0.448003 12.8801 0.392003C12.7881 0.336003 12.6721 0.320003 12.5681 0.352003C12.2121 0.452003 11.8841 0.612003 11.5841 0.824003C11.4921 0.888003 11.4321 0.988003 11.4201 1.096C11.4041 1.204 11.4361 1.316 11.5041 1.4C11.5721 1.488 11.5601 1.684 11.4281 1.852C11.2921 2.024 11.1001 2.076 11.0041 2.028ZM13.4681 2.132C14.2121 2.132 14.8161 2.74 14.8161 3.48C14.8161 4.224 14.2121 4.828 13.4681 4.828C12.7241 4.828 12.1201 4.224 12.1201 3.48C12.1201 2.74 12.7241 2.132 13.4681 2.132Z" fill="#0064FF"/>
<path d="M17.7762 3.32001H17.5162C17.5122 3.63201 17.3962 3.92801 17.1922 4.14401C17.1402 4.19601 17.0842 4.24401 17.0242 4.28801C17.0602 4.34801 17.0842 4.40801 17.1082 4.47601C17.2122 4.82801 17.1762 5.16001 17.0162 5.44801C16.8002 5.83601 16.5162 6.19201 16.1762 6.50001C15.9562 6.69601 15.6722 6.80801 15.3762 6.80801C15.3362 6.80801 15.2922 6.80401 15.2522 6.80001C15.1842 6.79601 15.1162 6.78401 15.0522 6.76401C15.0242 6.83201 14.9882 6.89201 14.9482 6.95201C14.7642 7.23601 14.4642 7.42801 14.1282 7.48001C13.9042 7.51601 13.6842 7.53601 13.4682 7.53601C13.2522 7.53601 13.0322 7.51601 12.7922 7.47601C12.4842 7.43201 12.1882 7.24801 12.0002 6.97201C11.9562 6.90401 11.9162 6.83601 11.8882 6.76401C11.8122 6.78401 11.7362 6.79601 11.6602 6.80001C11.6442 6.80401 11.6002 6.80801 11.5602 6.80801C11.2642 6.80801 10.9802 6.69601 10.7602 6.49601C10.4202 6.19201 10.1362 5.83601 9.91622 5.44401C9.76022 5.14001 9.72822 4.81601 9.81622 4.50801C9.84422 4.43201 9.87622 4.35601 9.91222 4.28801C9.84822 4.24401 9.78822 4.18801 9.73622 4.12801C9.53622 3.92001 9.42422 3.62401 9.42022 3.32001H3.37622C2.52022 3.32001 1.82422 4.01601 1.82422 4.87201V14.204H18.1762V3.73601L18.1722 3.73201C18.1722 3.72801 18.1762 3.72401 18.1762 3.72401C18.1762 3.50401 17.9962 3.32001 17.7762 3.32001ZM11.2282 9.65601C11.1522 9.73601 11.0482 9.78401 10.9362 9.78401C10.7882 9.78401 10.5962 9.94401 10.5362 10.216C10.4722 10.488 10.5762 10.716 10.7082 10.78C10.8082 10.824 10.8842 10.912 10.9202 11.016C10.9562 11.124 10.9442 11.236 10.8882 11.336C10.6922 11.688 10.4362 12.012 10.1242 12.288C10.0442 12.36 9.93622 12.4 9.82422 12.388C9.71622 12.38 9.61222 12.324 9.54422 12.24C9.45222 12.124 9.20822 12.076 8.95622 12.196C8.70422 12.316 8.59222 12.536 8.62422 12.68C8.64822 12.788 8.62822 12.904 8.56822 12.996C8.50822 13.088 8.40822 13.148 8.30022 13.168C8.08422 13.204 7.88422 13.22 7.69222 13.22C7.49622 13.22 7.29622 13.204 7.08022 13.168C6.97222 13.148 6.87622 13.088 6.81222 12.996C6.75222 12.904 6.73222 12.788 6.75622 12.68C6.79222 12.536 6.67622 12.316 6.42422 12.196C6.17222 12.072 5.92822 12.12 5.83622 12.24C5.76822 12.324 5.66822 12.38 5.55622 12.388C5.44822 12.4 5.34022 12.364 5.25622 12.288C4.94422 12.012 4.68822 11.688 4.49222 11.336C4.43622 11.236 4.42822 11.124 4.46022 11.016C4.49622 10.912 4.57222 10.824 4.67222 10.78C4.80422 10.716 4.90822 10.488 4.84422 10.216C4.78422 9.94401 4.59222 9.78401 4.44422 9.78401C4.33222 9.78401 4.22822 9.73601 4.15222 9.65601C4.07622 9.57601 4.04022 9.47201 4.04422 9.36001C4.06822 8.94001 4.16022 8.54001 4.31222 8.16801C4.35622 8.06401 4.43622 7.98401 4.54022 7.94401C4.64422 7.90801 4.76022 7.91201 4.86022 7.96001C4.99222 8.02801 5.23622 7.96401 5.40822 7.74801C5.58422 7.52801 5.59222 7.28001 5.49622 7.16401C5.42822 7.07601 5.39622 6.96801 5.41222 6.85601C5.42822 6.74801 5.48822 6.64801 5.57622 6.58401C5.91222 6.34801 6.28422 6.16801 6.68022 6.05601C6.78422 6.02401 6.90022 6.04001 6.99222 6.09601C7.08822 6.15201 7.15622 6.24401 7.18022 6.35201C7.21222 6.49601 7.41222 6.64801 7.69222 6.64801C7.96822 6.64801 8.16822 6.49601 8.20022 6.35201C8.22422 6.24401 8.29222 6.15201 8.38822 6.09601C8.48022 6.04001 8.59622 6.02401 8.70422 6.05601C9.09622 6.16801 9.46822 6.34801 9.80422 6.58401C9.89622 6.64801 9.95222 6.74801 9.96822 6.85601C9.98422 6.96801 9.95222 7.07601 9.88422 7.16401C9.79222 7.28001 9.80022 7.52801 9.97222 7.74801C10.1482 7.96401 10.3882 8.02801 10.5202 7.96001C10.6202 7.91201 10.7362 7.90801 10.8402 7.94401C10.9442 7.98401 11.0242 8.06401 11.0682 8.16801C11.2242 8.54001 11.3122 8.94401 11.3362 9.36001C11.3442 9.46801 11.3042 9.58001 11.2282 9.65601Z" fill="#0064FF"/>
<path d="M7.69191 8.088C6.87591 8.088 6.21191 8.748 6.21191 9.564C6.21191 10.38 6.87591 11.044 7.69191 11.044C8.50791 11.044 9.16791 10.38 9.16791 9.564C9.16791 8.744 8.50791 8.088 7.69191 8.088Z" fill="#0064FF"/>
<path d="M19.6 15.008H0.4C0.18 15.008 0 15.188 0 15.408C0 16.656 1.012 17.668 2.26 17.668H17.74C18.988 17.668 20 16.656 20 15.408C20 15.188 19.82 15.008 19.6 15.008Z" fill="#0064FF"/>
</svg>
