<svg width="100" height="100" viewBox="0 0 100 100" fill="none" xmlns="http://www.w3.org/2000/svg">
<g filter="url(#filter0_d_16_298)">
<rect x="24" y="16" width="52" height="52" rx="10" fill="white" shape-rendering="crispEdges"/>
<path d="M55.0625 38.8361C51.922 38.8361 49.3672 41.3908 49.3672 44.5314C49.3672 47.672 51.9219 50.2267 55.0625 50.2267C58.2031 50.2267 60.8 47.672 60.8 44.5314C60.8 41.3908 58.2031 38.8361 55.0625 38.8361ZM55.712 47.5811C55.7065 47.5831 55.7008 47.5822 55.6953 47.5841V48.3283C55.6953 48.6781 55.4122 48.9611 55.0625 48.9611C54.7127 48.9611 54.4296 48.6781 54.4296 48.3283V47.5798C54.0129 47.439 53.6135 47.1718 53.2721 46.7648C53.0472 46.4972 53.0818 46.098 53.35 45.8736C53.6176 45.6487 54.0181 45.6833 54.2411 45.9515C54.5761 46.3501 54.9549 46.5083 55.2788 46.3921C55.5278 46.3013 55.6953 46.0621 55.6953 45.797C55.6953 45.4479 55.4116 45.1642 55.0625 45.1642C54.0156 45.1642 53.164 44.3126 53.164 43.2658C53.164 42.5013 53.6189 41.8147 54.3228 41.5169C54.3576 41.5021 54.3945 41.503 54.4297 41.4904V40.7345C54.4297 40.3847 54.7127 40.1017 55.0625 40.1017C55.4123 40.1017 55.6953 40.3847 55.6953 40.7345V41.4916C56.023 41.6023 56.3425 41.7782 56.6279 42.0546C56.8788 42.2974 56.885 42.6979 56.6414 42.9494C56.3986 43.2003 55.9975 43.2059 55.7466 42.963C55.4388 42.6645 55.0983 42.5619 54.8165 42.6824C54.5817 42.7819 54.4296 43.0106 54.4296 43.2658C54.4296 43.615 54.7133 43.8986 55.0625 43.8986C56.1093 43.8986 56.9609 44.7503 56.9609 45.7971C56.961 46.5924 56.4591 47.3092 55.712 47.5811Z" fill="#0064FF"/>
<path d="M39.833 45.1642C39.4832 45.1642 39.2002 45.4472 39.2002 45.797V52.1673C39.2002 52.5171 39.4832 52.8002 39.833 52.8002H41.7314V45.1642H39.833Z" fill="#0064FF"/>
<path d="M54.2084 35.1496L49.7787 31.3527C49.5426 31.1488 49.1916 31.1488 48.9555 31.3527L44.5259 35.1496C44.3244 35.3214 44.2521 35.6007 44.3442 35.8492C44.4356 36.0976 44.6723 36.2626 44.9375 36.2626H46.8359C46.8359 41.7335 46.8359 47.3289 46.8359 52.8002C48.4661 52.8002 49.5932 52.8002 51.2656 52.8002C51.6154 52.8002 51.8984 52.5171 51.8984 52.1674V50.7239C49.648 49.5693 48.1015 47.2299 48.1015 44.5314C48.1015 41.8329 49.6481 39.4936 51.8984 38.3389V36.2627H53.7968C54.062 36.2627 54.2987 36.0977 54.3901 35.8492C54.4822 35.6007 54.4099 35.3214 54.2084 35.1496Z" fill="#0064FF"/>
<path d="M43.6719 40.1017C43.3221 40.1017 43.0391 40.3847 43.0391 40.7345V45.1642V52.8001C43.9634 52.8001 44.6728 52.8001 45.5703 52.8001V40.1017H43.6719Z" fill="#0064FF"/>
</g>
<defs>
<filter id="filter0_d_16_298" x="0" y="0" width="100" height="100" filterUnits="userSpaceOnUse" color-interpolation-filters="sRGB">
<feFlood flood-opacity="0" result="BackgroundImageFix"/>
<feColorMatrix in="SourceAlpha" type="matrix" values="0 0 0 0 0 0 0 0 0 0 0 0 0 0 0 0 0 0 127 0" result="hardAlpha"/>
<feOffset dy="8"/>
<feGaussianBlur stdDeviation="12"/>
<feComposite in2="hardAlpha" operator="out"/>
<feColorMatrix type="matrix" values="0 0 0 0 0.533333 0 0 0 0 0.533333 0 0 0 0 0.533333 0 0 0 0.15 0"/>
<feBlend mode="normal" in2="BackgroundImageFix" result="effect1_dropShadow_16_298"/>
<feBlend mode="normal" in="SourceGraphic" in2="effect1_dropShadow_16_298" result="shape"/>
</filter>
</defs>
</svg>
