<svg width="22" height="22" viewBox="0 0 22 22" fill="none" xmlns="http://www.w3.org/2000/svg">
<path d="M16.0625 7.83606C12.922 7.83606 10.3672 10.3908 10.3672 13.5314C10.3672 16.672 12.9219 19.2267 16.0625 19.2267C19.2031 19.2267 21.8 16.672 21.8 13.5314C21.8 10.3908 19.2031 7.83606 16.0625 7.83606ZM16.712 16.5811C16.7065 16.5831 16.7008 16.5822 16.6953 16.5841V17.3283C16.6953 17.6781 16.4122 17.9611 16.0625 17.9611C15.7127 17.9611 15.4296 17.6781 15.4296 17.3283V16.5798C15.0129 16.439 14.6135 16.1718 14.2721 15.7648C14.0472 15.4972 14.0818 15.098 14.35 14.8736C14.6176 14.6487 15.0181 14.6833 15.2411 14.9515C15.5761 15.3501 15.9549 15.5083 16.2788 15.3921C16.5278 15.3013 16.6953 15.0621 16.6953 14.797C16.6953 14.4479 16.4116 14.1642 16.0625 14.1642C15.0156 14.1642 14.164 13.3126 14.164 12.2658C14.164 11.5013 14.6189 10.8147 15.3228 10.5169C15.3576 10.5021 15.3945 10.503 15.4297 10.4904V9.73453C15.4297 9.38475 15.7127 9.1017 16.0625 9.1017C16.4123 9.1017 16.6953 9.38475 16.6953 9.73453V10.4916C17.023 10.6023 17.3425 10.7782 17.6279 11.0546C17.8788 11.2974 17.885 11.6979 17.6414 11.9494C17.3986 12.2003 16.9975 12.2059 16.7466 11.963C16.4388 11.6645 16.0983 11.5619 15.8165 11.6824C15.5817 11.7819 15.4296 12.0106 15.4296 12.2658C15.4296 12.615 15.7133 12.8986 16.0625 12.8986C17.1093 12.8986 17.9609 13.7503 17.9609 14.7971C17.961 15.5924 17.4591 16.3092 16.712 16.5811Z" fill="#0064FF"/>
<path d="M0.833018 14.1642C0.483236 14.1642 0.200195 14.4472 0.200195 14.797V21.1673C0.200195 21.5171 0.483236 21.8002 0.833018 21.8002H2.73144V14.1642H0.833018Z" fill="#0064FF"/>
<path d="M15.2084 4.14962L10.7787 0.352721C10.5426 0.148784 10.1916 0.148784 9.95554 0.352721L5.52587 4.14962C5.32442 4.32141 5.25211 4.60073 5.34417 4.84918C5.43563 5.09763 5.6723 5.26262 5.93746 5.26262H7.83588C7.83588 10.7335 7.83588 16.3289 7.83588 21.8002C9.46612 21.8002 10.5932 21.8002 12.2656 21.8002C12.6154 21.8002 12.8984 21.5171 12.8984 21.1674V19.7239C10.648 18.5693 9.10153 16.2299 9.10153 13.5314C9.10153 10.8329 10.6481 8.49356 12.8984 7.33891V5.26267H14.7968C15.062 5.26267 15.2987 5.09767 15.3901 4.84922C15.4822 4.60073 15.4099 4.32141 15.2084 4.14962Z" fill="#0064FF"/>
<path d="M4.67189 9.10168C4.3221 9.10168 4.03906 9.38473 4.03906 9.73451V14.1642V21.8001C4.96341 21.8001 5.67284 21.8001 6.57031 21.8001V9.10168H4.67189Z" fill="#0064FF"/>
</svg>
