<svg width="82" height="16" viewBox="0 0 82 16" fill="none" xmlns="http://www.w3.org/2000/svg">
<g clip-path="url(#clip0_42_1933)">
<path d="M2.09373 14.6964C2.09878 14.346 2.1969 14.0022 2.37923 13.6964L8.33699 3.23212H1.35139C1.16175 3.25335 0.969455 3.23659 0.787205 3.18302C0.604955 3.12945 0.436888 3.04023 0.294065 2.92128C0.151241 2.80232 0.0368979 2.65637 -0.0413949 2.49294C-0.119688 2.32951 -0.160156 2.15233 -0.160156 1.97316C-0.160156 1.79399 -0.119688 1.61686 -0.0413949 1.45343C0.0368979 1.29001 0.151241 1.144 0.294065 1.02504C0.436888 0.90609 0.604955 0.816874 0.787205 0.763302C0.969455 0.709729 1.16175 0.693029 1.35139 0.714255H9.66939C9.92879 0.699627 10.1886 0.734957 10.4329 0.818124C10.6772 0.901292 10.9008 1.03055 11.0898 1.19785C11.2788 1.36515 11.4293 1.56698 11.532 1.79093C11.6348 2.01487 11.6875 2.25617 11.687 2.49997C11.6291 3.13568 11.407 3.74858 11.0399 4.28568L5.15826 15.0714C5.04471 15.3543 4.8373 15.5955 4.56657 15.7595C4.29584 15.9234 3.97613 16.0015 3.65456 15.9821C3.45983 16.0048 3.26215 15.9885 3.0746 15.9344C2.88705 15.8803 2.71387 15.7895 2.56642 15.668C2.41897 15.5466 2.30061 15.3972 2.21914 15.2297C2.13767 15.0622 2.09492 14.8805 2.09373 14.6964Z" fill="#0064FF"/>
<path d="M21.8515 0.660793H16.9787C16.7481 0.646404 16.517 0.679614 16.3016 0.758123C16.0863 0.836631 15.8918 0.958529 15.7321 1.11518C15.5724 1.27183 15.4513 1.45942 15.3772 1.66477C15.3032 1.87011 15.2781 2.08818 15.3036 2.30362V14.3215C15.2785 14.5431 15.3033 14.7673 15.3765 14.9793C15.4497 15.1914 15.5696 15.3866 15.7285 15.5524C15.8874 15.7181 16.0816 15.8507 16.2986 15.9414C16.5157 16.0321 16.7506 16.079 16.9882 16.079C17.2258 16.079 17.4607 16.0321 17.6777 15.9414C17.8948 15.8507 18.089 15.7181 18.2479 15.5524C18.4067 15.3866 18.5266 15.1914 18.5998 14.9793C18.673 14.7673 18.6979 14.5431 18.6727 14.3215V11H21.6801C22.4253 11.0478 23.173 10.9485 23.8748 10.7087C24.5767 10.4689 25.2172 10.0938 25.7551 9.60768C26.2931 9.12151 26.7165 8.53502 26.9982 7.88599C27.2798 7.23697 27.4134 6.53978 27.3904 5.83935C27.426 5.14893 27.3069 4.45916 27.0409 3.81457C26.7749 3.16997 26.3678 2.58485 25.8459 2.09692C25.324 1.60899 24.6989 1.22908 24.0109 0.981718C23.3229 0.734357 22.5873 0.625052 21.8515 0.660793ZM20.9378 8.5358H18.6727V3.17866H20.9568C21.3595 3.13497 21.7674 3.17162 22.1538 3.28629C22.5403 3.40096 22.8965 3.59104 23.1991 3.84399C23.5017 4.09695 23.7439 4.40711 23.9097 4.75407C24.0755 5.10104 24.1613 5.47698 24.1613 5.85723C24.1613 6.23747 24.0755 6.61342 23.9097 6.96038C23.7439 7.30735 23.5017 7.61745 23.1991 7.87041C22.8965 8.12336 22.5403 8.31345 22.1538 8.42812C21.7674 8.54279 21.3595 8.57949 20.9568 8.5358H20.9378Z" fill="#333333"/>
<path d="M32.2634 3.14286C33.22 3.14286 33.9955 2.4393 33.9955 1.57143C33.9955 0.703553 33.22 0 32.2634 0C31.3067 0 30.5312 0.703553 30.5312 1.57143C30.5312 2.4393 31.3067 3.14286 32.2634 3.14286Z" fill="#0064FF"/>
<path d="M30.6453 14.3929V5.89285C30.6205 5.67849 30.6442 5.46163 30.7147 5.2564C30.7852 5.05117 30.9009 4.86216 31.0545 4.70169C31.208 4.54122 31.3958 4.41293 31.6057 4.32507C31.8156 4.23721 32.0428 4.19177 32.2727 4.19177C32.5025 4.19177 32.7298 4.23721 32.9397 4.32507C33.1496 4.41293 33.3374 4.54122 33.4909 4.70169C33.6444 4.86216 33.7602 5.05117 33.8307 5.2564C33.9012 5.46163 33.9249 5.67849 33.9001 5.89285V14.375C33.9249 14.5894 33.9012 14.8062 33.8307 15.0115C33.7602 15.2167 33.6444 15.4057 33.4909 15.5662C33.3374 15.7266 33.1496 15.8549 32.9397 15.9428C32.7298 16.0306 32.5025 16.0761 32.2727 16.0761C32.0428 16.0761 31.8156 16.0306 31.6057 15.9428C31.3958 15.8549 31.208 15.7266 31.0545 15.5662C30.9009 15.4057 30.7852 15.2167 30.7147 15.0115C30.6442 14.8062 30.6205 14.5894 30.6453 14.375V14.3929Z" fill="#333333"/>
<path d="M37.2314 14.8215C37.234 14.437 37.3902 14.0674 37.6692 13.7858L40.4673 10.2144L37.6692 6.64293C37.4444 6.37279 37.3236 6.03922 37.3266 5.6965C37.3313 5.51119 37.3759 5.32866 37.4577 5.15993C37.5395 4.99121 37.6569 4.83975 37.8027 4.71465C37.9485 4.58955 38.1197 4.49341 38.3061 4.43198C38.4925 4.37055 38.6903 4.34512 38.8874 4.35721C39.1923 4.3477 39.4932 4.42427 39.7512 4.5771C40.0091 4.72993 40.2122 4.95194 40.334 5.21432L42.561 8.37507L44.75 5.25007C45.1878 4.60721 45.5304 4.35721 46.1395 4.35721C46.3318 4.33704 46.5266 4.35527 46.7108 4.41078C46.8951 4.4663 47.0648 4.55782 47.2086 4.67928C47.3525 4.80075 47.4673 4.94943 47.5454 5.11552C47.6236 5.28161 47.6635 5.46131 47.6623 5.64288C47.6655 6.03902 47.5092 6.42171 47.2245 6.71432L44.5026 10.125L47.2816 13.6965C47.5092 13.9652 47.6302 14.2997 47.6242 14.6429C47.6133 14.9579 47.4903 15.2605 47.2748 15.5023C47.0592 15.7441 46.7636 15.9112 46.435 15.9769C46.1064 16.0427 45.7638 16.0033 45.4619 15.8651C45.1599 15.7269 44.916 15.4978 44.769 15.2143L42.3897 11.8751L40.0675 15.1608C39.6298 15.8036 39.3062 15.9822 38.7161 15.9822C38.537 15.9994 38.3561 15.9828 38.1839 15.9335C38.0117 15.8841 37.8517 15.8031 37.7134 15.6949C37.5751 15.5868 37.4613 15.4538 37.3785 15.3038C37.2957 15.1538 37.2457 14.9898 37.2314 14.8215Z" fill="#333333"/>
<path d="M60.1104 11.9465C59.9084 11.9414 59.7079 11.9789 59.5234 12.0561C59.3389 12.1334 59.1753 12.2485 59.0444 12.3929C58.727 12.8247 58.2995 13.175 57.8008 13.412C57.3021 13.6491 56.7481 13.7653 56.1893 13.75C55.811 13.7594 55.4349 13.6931 55.086 13.5555C54.7371 13.4179 54.4235 13.2122 54.166 12.952C53.9085 12.6919 53.713 12.3832 53.5925 12.0466C53.4721 11.7101 53.4294 11.3533 53.4674 11V10.8572H60.3578C60.5479 10.877 60.7404 10.8565 60.9209 10.7971C61.1014 10.7377 61.2654 10.641 61.4007 10.5141C61.5359 10.3872 61.639 10.2333 61.7023 10.064C61.7656 9.89463 61.7875 9.71413 61.7664 9.53576C61.8003 8.82946 61.6748 8.12439 61.398 7.46678C61.1213 6.80917 60.6995 6.21381 60.1603 5.71981C59.6212 5.22581 58.9768 4.84432 58.2695 4.60025C57.5622 4.35619 56.8079 4.25505 56.0561 4.30358C52.5157 4.30358 50.3458 6.6072 50.3458 10.2143C50.2539 10.9766 50.3424 11.7485 50.605 12.475C50.8676 13.2015 51.2978 13.8646 51.865 14.4172C52.4322 14.9698 53.1223 15.3982 53.8863 15.6718C54.6502 15.9454 55.4691 16.0574 56.2845 16C57.2438 16.0861 58.2101 15.9275 59.0812 15.5409C59.9523 15.1542 60.6959 14.554 61.2334 13.8036C61.3763 13.5824 61.4551 13.33 61.4618 13.0714C61.4664 12.91 61.4333 12.7495 61.3648 12.6014C61.2964 12.4532 61.1941 12.3209 61.0654 12.2137C60.9366 12.1065 60.7844 12.027 60.6194 11.9809C60.4544 11.9347 60.2807 11.923 60.1104 11.9465ZM56.0941 6.58934C56.4296 6.58412 56.7627 6.64344 57.0728 6.76367C57.3828 6.88391 57.6634 7.06246 57.897 7.28836C58.1307 7.51426 58.3125 7.78268 58.4313 8.07708C58.5501 8.37147 58.6033 8.68558 58.5876 9.00001H53.5054C53.5054 8.35592 53.7782 7.73819 54.2637 7.28275C54.7491 6.8273 55.4076 6.57147 56.0941 6.57147V6.58934Z" fill="#333333"/>
<path d="M64.9265 14.3928V2.03568C64.9018 1.82131 64.9254 1.60445 64.9959 1.39922C65.0664 1.19399 65.1822 1.00503 65.3357 0.844565C65.4893 0.684098 65.6771 0.555749 65.887 0.467891C66.0969 0.380034 66.3241 0.334595 66.554 0.334595C66.7838 0.334595 67.011 0.380034 67.2209 0.467891C67.4308 0.555749 67.6187 0.684098 67.7722 0.844565C67.9257 1.00503 68.0415 1.19399 68.112 1.39922C68.1825 1.60445 68.2061 1.82131 68.1814 2.03568V14.3928C68.2061 14.6072 68.1825 14.8241 68.112 15.0293C68.0415 15.2345 67.9257 15.4235 67.7722 15.584C67.6187 15.7444 67.4308 15.8728 67.2209 15.9606C67.011 16.0485 66.7838 16.0939 66.554 16.0939C66.3241 16.0939 66.0969 16.0485 65.887 15.9606C65.6771 15.8728 65.4893 15.7444 65.3357 15.584C65.1822 15.4235 65.0664 15.2345 64.9959 15.0293C64.9254 14.8241 64.9018 14.6072 64.9265 14.3928Z" fill="#333333"/>
<path d="M71.5885 13.7678C71.5009 13.5885 71.4555 13.3936 71.4553 13.1964C71.4521 13.037 71.4845 12.8788 71.5504 12.7318C71.6163 12.5849 71.7143 12.4525 71.838 12.3432C71.9617 12.2338 72.1084 12.15 72.2686 12.0971C72.4289 12.0441 72.5993 12.0232 72.7687 12.0357C73.0449 12.0448 73.3156 12.1102 73.5622 12.2274C73.8087 12.3446 74.0251 12.5107 74.1962 12.7143C74.4868 13.1017 74.8804 13.411 75.3379 13.6115C75.7953 13.812 76.3008 13.8966 76.8039 13.8571C77.9841 13.8571 78.7074 13.3928 78.7074 12.6607C78.7074 11.9286 78.3076 11.7321 77.1275 11.4821L75.1289 11.0893C72.7877 10.625 71.5885 9.49996 71.5885 7.83925C71.5885 5.69639 73.492 4.26782 76.6707 4.26782C77.611 4.15582 78.5651 4.31864 79.4031 4.73409C80.2411 5.14953 80.9221 5.79741 81.3531 6.58928C81.3808 6.74295 81.3808 6.89986 81.3531 7.05353C81.3531 7.66067 80.9534 8.08928 80.1159 8.08928C79.8951 8.09686 79.6751 8.05926 79.4714 7.97909C79.2676 7.89891 79.0848 7.77806 78.9358 7.62497C78.6769 7.24992 78.3214 6.9421 77.9023 6.72988C77.4831 6.51766 77.0138 6.40789 76.5375 6.4107C75.4335 6.4107 74.634 6.91069 74.634 7.62497C74.634 8.33926 75.0908 8.6071 76.29 8.83925L78.1934 9.24998C80.725 9.74998 81.7719 10.625 81.7719 12.3035C81.7719 14.5178 79.6401 15.9643 76.4994 15.9643C73.9868 16 72.1405 15.0893 71.5885 13.7678Z" fill="#333333"/>
</g>
<defs>
<clipPath id="clip0_42_1933">
<rect width="82" height="16" fill="white"/>
</clipPath>
</defs>
</svg>
