<svg width="24" height="24" viewBox="0 0 24 24" fill="none" xmlns="http://www.w3.org/2000/svg">
<g id="Frame">
<g id="Group">
<path id="Vector" d="M17.4543 2.00015H6.54539C5.34032 2.00159 4.18502 2.48095 3.33291 3.33306C2.48079 4.18517 2.00144 5.34047 2 6.54554V13.8182C2.00132 14.8656 2.36371 15.8806 3.02609 16.692C3.68847 17.5034 4.61034 18.0616 5.63631 18.2726V21.0908C5.63629 21.2554 5.68094 21.4169 5.76551 21.5581C5.85009 21.6993 5.9714 21.8148 6.11652 21.8925C6.26163 21.9701 6.42511 22.0069 6.58949 21.9989C6.75388 21.9909 6.91302 21.9385 7.04993 21.8471L12.2726 18.3636H17.4543C18.6594 18.3621 19.8147 17.8828 20.6668 17.0306C21.5189 16.1785 21.9983 15.0232 21.9997 13.8182V6.54554C21.9983 5.34047 21.5189 4.18517 20.6668 3.33306C19.8147 2.48095 18.6594 2.00159 17.4543 2.00015ZM15.6362 12.9091H8.36354C8.12244 12.9091 7.89121 12.8133 7.72073 12.6428C7.55024 12.4723 7.45447 12.2411 7.45447 12C7.45447 11.7589 7.55024 11.5277 7.72073 11.3572C7.89121 11.1867 8.12244 11.0909 8.36354 11.0909H15.6362C15.8773 11.0909 16.1085 11.1867 16.279 11.3572C16.4495 11.5277 16.5452 11.7589 16.5452 12C16.5452 12.2411 16.4495 12.4723 16.279 12.6428C16.1085 12.8133 15.8773 12.9091 15.6362 12.9091ZM17.4543 9.27277H6.54539C6.30429 9.27277 6.07306 9.177 5.90257 9.00651C5.73209 8.83603 5.63631 8.6048 5.63631 8.3637C5.63631 8.12259 5.73209 7.89137 5.90257 7.72088C6.07306 7.5504 6.30429 7.45462 6.54539 7.45462H17.4543C17.6954 7.45462 17.9267 7.5504 18.0971 7.72088C18.2676 7.89137 18.3634 8.12259 18.3634 8.3637C18.3634 8.6048 18.2676 8.83603 18.0971 9.00651C17.9267 9.177 17.6954 9.27277 17.4543 9.27277Z" fill="#0064FF"/>
</g>
</g>
</svg>
