<svg width="134" height="26" viewBox="0 0 134 26" fill="none" xmlns="http://www.w3.org/2000/svg">
<path d="M56.9314 5.28748C55.2007 5.28748 53.4029 5.75654 51.1778 6.94148L52.4139 9.98105C54.3463 8.9082 55.9424 8.43914 57.1114 8.43914C58.4375 8.43914 59.022 8.93082 59.022 9.57885V9.6231C59.022 10.0705 58.662 10.3164 57.7858 10.4059L56.2579 10.5622C52.4367 10.9644 50.8633 12.6184 50.8633 14.8978V15.0542C50.8633 17.2225 52.6612 18.9208 55.2007 18.9208C56.873 18.9208 58.3258 18.2186 59.2089 16.9796L59.4937 18.6975H62.955V10.8975C62.955 7.20994 60.8198 5.28748 56.9314 5.28748ZM56.5941 15.9481C55.3125 15.9481 54.7063 15.4564 54.7063 14.6963V14.651C54.7063 13.9804 55.088 13.4887 56.4814 13.2881L57.0886 13.1986C57.9757 13.0757 58.5206 12.9134 59.021 12.6115V13.6018C59.022 15.0994 58.0775 15.9481 56.5941 15.9481Z" fill="#359DFE"/>
<path d="M24.3871 5.37698L19.9597 0.974487L15.5322 5.37698L17.7346 7.56791L6.63184 18.6081L11.0593 23.0106L15.4867 18.6081L13.2844 16.4181L24.3871 5.37698Z" fill="#359DFE"/>
<path d="M11.1031 0.974398L0 12.0149L4.4278 16.4177L15.5309 5.37725L11.1031 0.974398Z" fill="#359DFE"/>
<path d="M26.5894 7.56815L15.4863 18.6086L19.9141 23.0115L31.0172 11.971L26.5894 7.56815Z" fill="#359DFE"/>
<path d="M69.1361 0.818115H65.2031V18.6975H69.1361V0.818115Z" fill="#359DFE"/>
<path d="M44.2555 5.28748C42.4675 5.28748 41.0315 6.07416 40.2414 7.30631L39.9408 5.5107H36.4795V23.1659H40.4125V17.0465C41.1611 18.1941 42.5772 18.9198 44.2555 18.9198C47.4022 18.9198 49.9646 16.1487 49.9646 12.3264V11.8799C49.9646 8.05956 47.4022 5.28748 44.2555 5.28748ZM45.9189 12.2162C45.9189 14.2272 44.8627 15.6806 43.1093 15.6806C41.3559 15.6806 40.2997 14.2282 40.2997 12.2162V11.993C40.2997 9.98105 41.3559 8.52863 43.1093 8.52863C44.8627 8.52863 45.9189 9.98105 45.9189 11.993V12.2162Z" fill="#359DFE"/>
<path d="M122.201 5.28748C118.178 5.28748 115.346 8.05858 115.346 11.8809V12.3273C115.346 16.1487 118.178 18.9208 122.201 18.9208C126.224 18.9208 129.056 16.1497 129.056 12.3273V11.8809C129.056 8.05956 126.224 5.28748 122.201 5.28748ZM125.011 12.2162C125.011 14.2272 123.954 15.6806 122.201 15.6806C120.448 15.6806 119.391 14.2282 119.391 12.2162V11.993C119.391 9.98105 120.448 8.52863 122.201 8.52863C123.954 8.52863 125.011 9.98105 125.011 11.993V12.2162Z" fill="#359DFE"/>
<path d="M132.765 6.09295V6.02609C132.765 5.64651 132.473 5.37805 131.956 5.37805H131.057V7.43425H131.484V6.74099H131.959L132.316 7.43425H132.788L132.349 6.62102C132.615 6.5394 132.765 6.34076 132.765 6.09295ZM131.483 5.75763H131.955C132.225 5.75763 132.336 5.84711 132.336 6.0487V6.07132C132.336 6.25029 132.224 6.36141 131.955 6.36141H131.483V5.75763Z" fill="#359DFE"/>
<path d="M131.866 4.28247C130.652 4.28247 129.73 5.19896 129.73 6.40554C129.73 7.61212 130.652 8.52861 131.866 8.52861C133.079 8.52861 134.001 7.61212 134.001 6.40554C134.001 5.19798 133.079 4.28247 131.866 4.28247ZM131.866 8.23754C130.809 8.23754 130.045 7.4774 130.045 6.40456C130.045 5.33171 130.809 4.57158 131.866 4.57158C132.922 4.57158 133.686 5.33171 133.686 6.40456C133.686 7.47839 132.922 8.23754 131.866 8.23754Z" fill="#359DFE"/>
<path d="M103.772 0.818115H99.8389V18.6975H103.772V0.818115Z" fill="#359DFE"/>
<path d="M111.526 15.6806C110.38 15.6806 109.953 15.1221 109.953 13.9145V8.52864H114.583V5.5117H109.953V2.49475L106.02 3.07592V14.2951C106.02 17.3572 107.593 18.9218 110.74 18.9218C112.133 18.9218 113.774 18.4969 115.123 17.7368L113.999 14.9657C113.211 15.3895 112.11 15.6806 111.526 15.6806Z" fill="#359DFE"/>
<path d="M91.5671 5.28748C89.8365 5.28748 88.0386 5.75654 85.8135 6.94148L87.0497 9.98105C88.982 8.9082 90.5782 8.43914 91.7471 8.43914C93.0733 8.43914 93.6577 8.93082 93.6577 9.57885V9.6231C93.6577 10.0705 93.2977 10.3164 92.4215 10.4059L90.8936 10.5622C87.0724 10.9644 85.499 12.6184 85.499 14.8978V15.0542C85.499 17.2225 87.2969 18.9208 89.8365 18.9208C91.5078 18.9208 92.9615 18.2186 93.8446 16.9796L94.1294 18.6975H97.5907V10.8975C97.5907 7.20994 95.4556 5.28748 91.5671 5.28748ZM91.2299 15.9481C89.9482 15.9481 89.342 15.4564 89.342 14.6963V14.651C89.342 13.9804 89.7237 13.4887 91.1171 13.2881L91.7244 13.1986C92.6114 13.0757 93.1563 12.9134 93.6567 12.6115V13.6018C93.6567 15.0994 92.7133 15.9481 91.2299 15.9481Z" fill="#359DFE"/>
<path d="M77.7449 5.28748C73.722 5.28748 70.8896 8.05858 70.8896 11.8809V12.3273C70.8896 16.1487 73.722 18.9208 77.7449 18.9208C81.7679 18.9208 84.6002 16.1497 84.6002 12.3273V11.8809C84.5992 8.05956 81.7679 5.28748 77.7449 5.28748ZM80.5535 12.2162C80.5535 14.2272 79.4973 15.6806 77.7439 15.6806C75.9906 15.6806 74.9344 14.2282 74.9344 12.2162V11.993C74.9344 9.98105 75.9906 8.52863 77.7439 8.52863C79.4973 8.52863 80.5535 9.98105 80.5535 11.993V12.2162Z" fill="#359DFE"/>
<path d="M93.8438 21.8679H94.8515L96.2429 23.6921H96.2567V21.8679H97.1814V25.0845H96.2063L94.7822 23.2141H94.7684V25.0845H93.8438V21.8679Z" fill="#359DFE"/>
<path d="M98.4102 21.8679H101.239L101.276 22.6487H99.3763V23.0902H100.869V23.8022H99.3763V24.3037H101.331L101.294 25.0845H98.4102V21.8679Z" fill="#359DFE"/>
<path d="M103.3 22.6949H102.168L102.205 21.8679H105.37L105.408 22.6949H104.275V25.0855H103.3V22.6949Z" fill="#359DFE"/>
<path d="M106.189 21.8679H107.224L107.751 24.1011H107.802L108.486 21.8679H109.434L110.104 24.1011H110.155L110.672 21.8679H111.661L110.811 25.0845H109.54L108.949 23.1453H108.921L108.32 25.0845H107.044L106.189 21.8679Z" fill="#359DFE"/>
<path d="M112.373 23.4767C112.373 22.4285 113.089 21.7716 114.221 21.7716C115.354 21.7716 116.071 22.4285 116.071 23.4767C116.071 24.525 115.355 25.1819 114.221 25.1819C113.089 25.1819 112.373 24.524 112.373 23.4767ZM115.104 23.4767C115.104 22.9212 114.781 22.5898 114.221 22.5898C113.662 22.5898 113.338 22.9212 113.338 23.4767C113.338 24.0323 113.662 24.3637 114.216 24.3637C114.776 24.3637 115.104 24.0323 115.104 23.4767Z" fill="#359DFE"/>
<path d="M117.12 21.8679H119.006C119.865 21.8679 120.287 22.2721 120.287 23.0214C120.287 23.5367 120.074 23.8858 119.658 24.051L120.425 25.0855H119.325L118.729 24.2398H118.091V25.0855H117.12V21.8679ZM118.88 23.4855C119.204 23.4855 119.32 23.3066 119.32 23.0627C119.32 22.8188 119.204 22.6448 118.88 22.6448H118.09V23.4855H118.88Z" fill="#359DFE"/>
<path d="M121.548 21.8679H122.518V23.0539H122.916L123.863 21.8679H124.954L124.959 21.8719L123.721 23.4118L125.028 25.0806L125.023 25.0845H123.891L122.912 23.8484H122.518V25.0845H121.548V21.8679Z" fill="#359DFE"/>
<path d="M125.771 24.8731V23.991H125.776C126.317 24.2624 126.844 24.3961 127.301 24.3961C127.648 24.3961 127.823 24.3135 127.823 24.1522C127.823 23.991 127.707 23.9497 127.014 23.8395C126.256 23.7206 125.752 23.4944 125.752 22.8473C125.752 22.2455 126.284 21.7814 127.323 21.7814C127.74 21.7814 128.174 21.8689 128.576 22.039V22.9122L128.571 22.9172C128.188 22.6969 127.67 22.5582 127.254 22.5582C126.884 22.5582 126.737 22.6457 126.737 22.7923C126.737 22.9811 126.963 22.9988 127.532 23.0961C128.29 23.2249 128.794 23.4364 128.794 24.1168C128.794 24.6449 128.396 25.174 127.255 25.174C126.691 25.172 126.242 25.0569 125.771 24.8731Z" fill="#359DFE"/>
</svg>
