<svg width="126" height="26" viewBox="0 0 126 26" fill="none" xmlns="http://www.w3.org/2000/svg">
<path d="M77.2162 10.0531C81.0801 10.6112 82.8832 11.4353 82.8832 13.7364C82.8832 16.0878 80.1875 17.5184 76.6958 17.5184C74.618 17.5184 72.798 17.1244 71.1909 16.4656C71.1103 16.4333 70.9979 16.384 70.8854 16.3346V13.5973C71.2715 13.8059 71.7323 14.0215 72.0825 14.1645C73.4995 14.7448 75.1524 15.1337 76.5495 15.1337C78.7098 15.1337 79.684 14.6411 79.684 13.8845C79.684 13.2105 79.0332 12.9153 76.3713 12.5365C72.588 11.9945 70.6705 11.1734 70.6705 8.87036C70.6705 6.79904 73.0418 5.172 76.6301 5.172C78.6441 5.172 80.1706 5.49942 81.6165 6.12505C81.6384 6.13311 81.6602 6.14218 81.6821 6.15225V8.88749C81.3737 8.7394 81.0652 8.59231 80.7229 8.45932C79.4084 7.91731 77.9137 7.55564 76.4699 7.55564C74.6349 7.55564 73.8548 8.08052 73.8548 8.70514C73.8548 9.32976 74.4548 9.64308 77.2162 10.0531ZM29.5385 11.1664V7.81254H32.7805C34.5608 7.81254 35.2832 8.49055 35.2832 9.48995C35.2832 10.5246 34.6314 11.1674 32.6392 11.1674H29.5385V11.1664ZM33.2393 5.40371H26.4717V17.2866H29.5385V13.5581H33.0811C36.3061 13.5581 38.3331 12.0418 38.3331 9.43655C38.3321 6.97333 36.4992 5.40371 33.2393 5.40371ZM46.5436 10.9165V7.7944H50.5618C52.2892 7.7944 52.9938 8.3475 52.9938 9.34689C52.9938 10.3997 52.13 10.9175 50.4205 10.9175H46.5436V10.9165ZM46.5436 17.2866V13.2185H49.7687L53.1699 17.2866H56.6766L53.0107 12.9868C54.8436 12.4871 56.0944 11.2208 56.0944 9.2935C56.0944 6.84941 54.3849 5.40371 51.1598 5.40371H43.4767V17.2866H46.5436ZM65.1358 5.40371H62.052V17.2866H65.1358V5.40371ZM92.2062 5.40371H87.7303V17.2866H90.5673V8.41903H90.6021L95.1317 17.3038H97.3169L101.847 8.41903H101.882V17.2866H104.913V5.40371H100.437L96.3657 13.4865H96.3129L92.2062 5.40371ZM114.841 12.9868L117.132 8.25884H117.168L119.459 12.9868H114.841ZM120.516 15.1629L121.555 17.2866H124.869L118.878 5.33218H115.529L109.555 17.2866H112.745L113.784 15.1629H120.516Z" fill="#3F3F3F"/>
<path d="M125.194 6.52407V6.47974C125.194 6.22788 125.004 6.04956 124.666 6.04956H124.08V7.41365H124.359V6.95426H124.668L124.901 7.41365H125.209L124.922 6.87366C125.096 6.82127 125.194 6.68929 125.194 6.52407ZM124.359 6.30142H124.666C124.842 6.30142 124.915 6.36086 124.915 6.49486V6.50997C124.915 6.62885 124.841 6.70239 124.666 6.70239H124.359V6.30142Z" fill="#919191"/>
<path d="M124.608 5.32324C123.817 5.32324 123.216 5.93175 123.216 6.73267C123.216 7.5336 123.817 8.1421 124.608 8.1421C125.399 8.1421 126 7.5336 126 6.73267C126 5.93074 125.399 5.32324 124.608 5.32324ZM124.608 7.94766C123.919 7.94766 123.421 7.44394 123.421 6.73166C123.421 6.01939 123.919 5.51567 124.608 5.51567C125.297 5.51567 125.794 6.01939 125.794 6.73166C125.794 7.44394 125.297 7.94766 124.608 7.94766Z" fill="#919191"/>
<path d="M12.6973 17.2867V5.38159L18.8409 17.2867H12.6973Z" fill="#FF9C28"/>
<path d="M12.6963 5.38159L6.55464 17.2867H12.6963V25.8571L0 13L6.49295 6.4233L7.52386 5.38159L12.6963 0.142822V5.38159Z" fill="#4A50E9"/>
<path d="M27.7167 23.9943C27.9127 23.9943 27.9893 23.9298 27.9893 23.7827C27.9893 23.6447 27.9127 23.5742 27.7167 23.5742H27.1206V23.9973L27.7167 23.9943ZM27.6848 23.1571C27.8689 23.1571 27.9445 23.0996 27.9445 22.9546C27.9445 22.8196 27.8619 22.7621 27.6848 22.7621H27.1206V23.1571H27.6848ZM26.4648 22.2584H27.8629C28.3257 22.2584 28.6043 22.4508 28.6043 22.8236C28.6043 23.0734 28.5058 23.2508 28.2301 23.3404C28.5157 23.4563 28.652 23.6064 28.652 23.8734C28.652 24.3388 28.3008 24.505 27.8122 24.505H26.4658V22.2584H26.4648ZM29.9865 23.7857L29.0133 22.2584H29.7616L30.3099 23.154H30.3417L30.896 22.2584H31.6254L30.6562 23.7827V24.505H29.9875V23.7857H29.9865ZM34.5509 23.423C34.7569 23.423 34.8455 23.288 34.8455 23.1117C34.8455 22.9092 34.747 22.8004 34.545 22.8004H34.0255V23.423H34.5509ZM33.3598 22.2584H34.6683C35.2137 22.2584 35.5022 22.5758 35.5022 23.0956C35.5022 23.683 35.1311 23.9519 34.6186 23.9519H34.0255V24.504H33.3598V22.2584ZM36.8147 23.5359H37.4108L37.173 22.8296H37.0526L36.8147 23.5359ZM36.5799 22.2584H37.6506L38.4208 24.504H37.7233L37.568 24.0386H36.6525L36.4943 24.504H35.8097L36.5799 22.2584ZM39.0059 22.2584H39.6716V23.9237H40.8468L40.822 24.504H39.0059V22.2584ZM43.1545 23.3817C43.1545 22.9939 42.9326 22.7621 42.5494 22.7621C42.1663 22.7621 41.9444 22.9929 41.9444 23.3817C41.9444 23.7696 42.1663 24.0013 42.5465 24.0013C42.9296 24.0003 43.1545 23.7696 43.1545 23.3817ZM41.2817 23.3817C41.2817 22.6503 41.7733 22.1909 42.5494 22.1909C43.3256 22.1909 43.8172 22.6493 43.8172 23.3817C43.8172 24.1131 43.3256 24.5715 42.5494 24.5715C41.7733 24.5715 41.2817 24.1131 41.2817 23.3817ZM46.496 23.5359H47.092L46.8542 22.8296H46.7338L46.496 23.5359ZM46.2611 22.2584H47.3318L48.102 24.504H47.4045L47.2492 24.0386H46.3338L46.1755 24.504H45.4909L46.2611 22.2584ZM48.6861 22.2584H49.3519V23.9237H50.5271L50.5012 24.504H48.6852V22.2584H48.6861ZM51.4575 22.8357H50.6813L50.7062 22.2584H52.8775L52.9023 22.8357H52.1262V24.504H51.4575V22.8357ZM55.2099 23.3817C55.2099 22.9939 54.988 22.7621 54.6049 22.7621C54.2218 22.7621 53.9999 22.9929 53.9999 23.3817C53.9999 23.7696 54.2218 24.0013 54.6019 24.0013C54.9851 24.0003 55.2099 23.7696 55.2099 23.3817ZM53.3372 23.3817C53.3372 22.6503 53.8288 22.1909 54.6049 22.1909C55.3811 22.1909 55.8727 22.6493 55.8727 23.3817C55.8727 24.1131 55.3811 24.5715 54.6049 24.5715C53.8288 24.5715 53.3372 24.1131 53.3372 23.3817ZM57.7524 22.2584H58.443L59.3963 23.5318H59.4062V22.2584H60.0401V24.504H59.3714L58.3952 23.1984H58.3863V24.504H57.7524V22.2584ZM60.8312 22.2584H62.7706L62.7965 22.8034H61.4939V23.1117H62.5179V23.6084H61.4939V23.958H62.8343L62.8084 24.503H60.8312V22.2584ZM64.1309 22.8357H63.3547L63.3796 22.2584H65.5499L65.5758 22.8357H64.7996V24.504H64.1309V22.8357ZM66.0584 22.2584H66.7679L67.1291 23.818H67.1639L67.6326 22.2584H68.2824L68.7421 23.818H68.777L69.1322 22.2584H69.8109L69.2277 24.504H68.356L67.9501 23.15H67.9311L67.5192 24.504H66.6445L66.0584 22.2584ZM72.1185 23.3817C72.1185 22.9939 71.8966 22.7621 71.5135 22.7621C71.1303 22.7621 70.9085 22.9929 70.9085 23.3817C70.9085 23.7696 71.1304 24.0013 71.5105 24.0013C71.8936 24.0003 72.1185 23.7696 72.1185 23.3817ZM70.2457 23.3817C70.2457 22.6503 70.7363 22.1909 71.5135 22.1909C72.2896 22.1909 72.7812 22.6493 72.7812 23.3817C72.7812 24.1131 72.2896 24.5715 71.5135 24.5715C70.7363 24.5715 70.2457 24.1131 70.2457 23.3817ZM74.655 23.3878C74.8769 23.3878 74.9565 23.2628 74.9565 23.0926C74.9565 22.9223 74.8769 22.8004 74.655 22.8004H74.1126V23.3878H74.655ZM73.4479 22.2584H74.7405C75.3296 22.2584 75.6182 22.5405 75.6182 23.0634C75.6182 23.423 75.4719 23.6668 75.1873 23.7817L75.7137 24.504H74.9594L74.5505 23.9137H74.1126V24.504H73.4469V22.2584H73.4479ZM76.3038 22.2584H76.9695V23.0865H77.2422L77.892 22.2584H78.6403L78.6433 22.2614L77.7935 23.3364L78.69 24.501L78.687 24.504H77.9109L77.2392 23.6406H76.9695V24.504H76.3038V22.2584ZM79.1408 24.3569V23.7414H79.1438C79.515 23.9308 79.8752 24.0235 80.1896 24.0235C80.4275 24.0235 80.5479 23.9661 80.5479 23.8532C80.5479 23.7414 80.4683 23.7122 79.9936 23.6346C79.4742 23.551 79.1289 23.3938 79.1289 22.9415C79.1289 22.5214 79.4931 22.197 80.2066 22.197C80.4921 22.197 80.7897 22.2574 81.0653 22.3763V22.9858L81.0623 22.9888C80.7996 22.8347 80.4444 22.739 80.1588 22.739C79.905 22.739 79.8035 22.7994 79.8035 22.9022C79.8035 23.0332 79.9588 23.0462 80.3488 23.1137C80.8683 23.2034 81.2136 23.3515 81.2136 23.826C81.2136 24.1947 80.9409 24.5645 80.1588 24.5645C79.7717 24.5655 79.4642 24.4849 79.1408 24.3569Z" fill="#A4A4A4"/>
</svg>
