<svg width="24" height="24" viewBox="0 0 24 24" fill="none" xmlns="http://www.w3.org/2000/svg">
<g id="Frame">
<g id="Group">
<g id="Group_2">
<g id="Layer_5_87_">
<g id="Group_3">
<path id="Vector" d="M7.19523 14.6897C6.88918 14.3838 6.77392 14.5375 6.70585 14.6057C4.94347 16.368 3.37887 20.6204 4.20601 20.205C7.21713 18.6932 7.71885 19.1433 9.48117 17.381C9.5493 17.3129 9.70596 17.2006 9.39101 16.8856L7.19523 14.6897Z" fill="#0064FF"/>
<path id="Vector_2" d="M16.6961 14.6661C16.6162 14.412 16.7835 14.2895 16.8539 14.2135C20.7437 10.014 23.2157 4.41905 21.3838 2.58698C19.5615 0.76478 14.139 3.3091 9.94074 7.17077C9.85768 7.24727 9.69398 7.39214 9.40111 7.33099L8.09308 7.01953C7.72991 6.93316 7.21676 7.07833 6.95279 7.34231L2.15323 12.1418C1.88925 12.4058 1.97501 12.6693 2.34384 12.7272L5.81521 13.2727C6.18403 13.3307 6.70175 13.1621 6.96567 12.8981C6.96567 12.8981 7.14478 12.7185 7.32474 12.8984C8.31757 13.8911 10.1625 15.7361 11.1084 16.682C11.2964 16.87 11.1164 17.0488 11.1164 17.0488C10.8523 17.3128 10.6838 17.8304 10.7418 18.1993L11.2873 21.6706C11.3452 22.0396 11.6087 22.1253 11.8727 21.8613L16.6723 17.0617C16.9362 16.7977 17.0814 16.2847 16.9949 15.9215L16.6961 14.6661ZM15.6215 8.46544C14.8086 7.65251 14.8086 6.33461 15.6215 5.52179C16.4344 4.70885 17.7523 4.70885 18.5653 5.52179C19.3781 6.33455 19.3781 7.65251 18.5653 8.46538C17.7523 9.27832 16.4343 9.27832 15.6215 8.46544Z" fill="#0064FF"/>
</g>
</g>
</g>
</g>
</g>
</svg>
