<svg width="20" height="20" viewBox="0 0 20 20" fill="none" xmlns="http://www.w3.org/2000/svg">
<path d="M19.7079 10.14H0.295898C0.411898 11.108 0.959899 11.94 1.7359 12.448C1.5039 12.904 1.3799 13.404 1.3799 13.924C1.3799 15.472 2.4559 16.776 3.9399 17.092C4.1039 18.724 5.4879 20 7.1639 20C8.3839 20 9.4519 19.32 9.9999 18.32C10.5519 19.32 11.6199 20 12.8399 20C14.5159 20 15.8999 18.724 16.0639 17.092C17.5439 16.776 18.6239 15.472 18.6239 13.924C18.6239 13.404 18.4999 12.904 18.2679 12.448C19.0439 11.94 19.5919 11.108 19.7079 10.14Z" fill="#0064FF"/>
<path d="M9.99958 5.32C12.3036 5.32 14.1996 7.088 14.3956 9.34H19.7356V8.144C19.7356 7.944 19.5876 7.772 19.3916 7.748L17.4836 7.488C17.3396 6.992 17.1356 6.504 16.8876 6.032L18.0516 4.504C18.1716 4.344 18.1556 4.12 18.0156 3.98L15.7596 1.72C15.6156 1.58 15.3916 1.564 15.2316 1.688L13.7036 2.852C13.2316 2.6 12.7476 2.4 12.2516 2.252L11.9916 0.348C11.9636 0.148 11.7956 0 11.5956 0H8.40758C8.20758 0 8.03958 0.148 8.01158 0.348L7.75158 2.252C7.25558 2.4 6.77158 2.6 6.29958 2.852L4.76758 1.688C4.61158 1.564 4.38758 1.58 4.24358 1.72L1.98758 3.98C1.84758 4.12 1.83158 4.344 1.95158 4.504L3.11558 6.032C2.86358 6.504 2.66358 6.992 2.51558 7.488L0.611578 7.748C0.415578 7.772 0.267578 7.944 0.267578 8.144V9.34H5.60758C5.80358 7.088 7.69958 5.32 9.99958 5.32Z" fill="#0064FF"/>
</svg>
