<svg width="20" height="20" viewBox="0 0 20 20" fill="none" xmlns="http://www.w3.org/2000/svg">
<path d="M0.400391 13.628C0.400391 16.604 2.82039 19.028 5.79639 19.028C7.19239 19.028 8.46039 18.492 9.42039 17.62C8.51639 16.54 7.96839 15.148 7.96839 13.628C7.96839 13.176 8.02039 12.736 8.11239 12.308C6.27239 11.72 4.80439 10.3 4.14839 8.49197C1.97639 9.19197 0.400391 11.228 0.400391 13.628Z" fill="#0064FF"/>
<path d="M11.1967 13.628C11.1967 13.244 11.1527 12.868 11.0767 12.504C10.7247 12.564 10.3687 12.604 10.0007 12.604C9.63269 12.604 9.27269 12.564 8.92469 12.504C8.84469 12.868 8.80469 13.244 8.80469 13.628C8.80469 14.908 9.25269 16.084 10.0007 17.012C10.7487 16.084 11.1967 14.908 11.1967 13.628Z" fill="#0064FF"/>
<path d="M15.8521 8.49197C15.1961 10.3 13.7281 11.724 11.8881 12.308C11.9801 12.736 12.0321 13.176 12.0321 13.628C12.0321 15.148 11.4841 16.54 10.5801 17.62C11.5401 18.492 12.8081 19.028 14.2001 19.028C17.1761 19.028 19.6001 16.604 19.6001 13.628C19.6001 11.228 18.0241 9.19197 15.8521 8.49197Z" fill="#0064FF"/>
<path d="M10.0006 0.971985C7.02459 0.971985 4.60059 3.39199 4.60059 6.37199C4.60059 6.75999 4.64459 7.13599 4.72059 7.49599C5.07259 7.43599 5.42859 7.39599 5.79659 7.39599C7.41659 7.39599 8.88859 8.02399 9.99659 9.03999C11.1046 8.02399 12.5806 7.39599 14.1966 7.39599C14.5646 7.39599 14.9246 7.43599 15.2726 7.49599C15.3486 7.13199 15.3926 6.75599 15.3926 6.37199C15.4006 3.39199 12.9766 0.971985 10.0006 0.971985Z" fill="#0064FF"/>
<path d="M4.96484 8.3C5.54884 9.816 6.79284 11.004 8.34884 11.504C8.59684 10.816 8.96084 10.184 9.42084 9.636C8.46084 8.764 7.19284 8.228 5.80084 8.228C5.51284 8.232 5.23684 8.26 4.96484 8.3Z" fill="#0064FF"/>
<path d="M9.16797 11.696C9.43997 11.74 9.71597 11.768 9.99997 11.768C10.284 11.768 10.56 11.74 10.832 11.696C10.628 11.168 10.348 10.68 9.99997 10.248C9.65197 10.68 9.36797 11.168 9.16797 11.696Z" fill="#0064FF"/>
<path d="M15.036 8.3C14.764 8.256 14.488 8.228 14.204 8.228C12.808 8.228 11.54 8.764 10.584 9.636C11.044 10.188 11.404 10.82 11.656 11.504C13.204 11.008 14.452 9.816 15.036 8.3Z" fill="#0064FF"/>
</svg>
