<svg width="100" height="100" viewBox="0 0 100 100" fill="none" xmlns="http://www.w3.org/2000/svg">
<g filter="url(#filter0_d_16_1129)">
<rect x="24" y="16" width="52" height="52" rx="10" fill="white" shape-rendering="crispEdges"/>
<g clip-path="url(#clip0_16_1129)">
<path d="M59.8906 41.2969H59.1875V39.1875C59.1875 34.1475 55.04 30 50 30C44.96 30 40.8125 34.1475 40.8125 39.1875V41.2969H40.1094C38.9463 41.2969 38 42.2432 38 43.4062V46.2188C38 47.3818 38.9463 48.3281 40.1094 48.3281H41.5156C41.9042 48.3281 42.2188 48.0135 42.2188 47.625V39.1875C42.2188 38.4556 42.3277 37.7029 42.5185 37.0312H43.5648C44.3983 37.0312 45.153 36.5369 45.4859 35.772C46.2716 33.9743 48.0437 32.8125 50 32.8125C51.9563 32.8125 53.7284 33.9743 54.5134 35.7713C54.847 36.5369 55.6017 37.0312 56.4352 37.0312H57.4815C57.6723 37.7029 57.7812 38.4556 57.7812 39.1875V49.0781C57.7812 50.2412 56.7881 51.1875 55.625 51.1875H51.9799C51.6886 50.3708 50.9155 49.7812 50 49.7812C48.8369 49.7812 47.8906 50.7275 47.8906 51.8906C47.8906 53.0537 48.8369 54 50 54C50.9155 54 51.6886 53.4104 51.9799 52.5938H55.625C57.5634 52.5938 59.1875 51.0165 59.1875 49.0781V48.3281H59.8906C61.0537 48.3281 62 47.3818 62 46.2188V43.4062C62 42.2432 61.0537 41.2969 59.8906 41.2969Z" fill="#0064FF"/>
<path d="M47.0212 43.4062C46.8808 43.5276 45.0781 44.1024 45.0781 46.2188C45.0781 46.6073 45.3927 46.9219 45.7812 46.9219H48.5938C48.9823 46.9219 49.2969 46.6073 49.2969 46.2188C49.2969 45.8302 48.9823 45.5156 48.5938 45.5156H46.6484C46.9592 44.8929 47.4869 44.77 47.6502 44.6642C48.6659 44.1568 49.2969 43.1358 49.2969 42C49.2969 40.8369 48.3506 39.8906 47.1875 39.8906C46.0244 39.8906 45.0781 40.8369 45.0781 42C45.0781 42.3885 45.3927 42.7031 45.7812 42.7031C46.1698 42.7031 46.4844 42.3885 46.4844 42C46.4844 41.612 46.7995 41.2969 47.1875 41.2969C47.5755 41.2969 47.8906 41.612 47.8906 42C47.8906 42.5995 47.5576 43.1384 47.0212 43.4062Z" fill="#0064FF"/>
<path d="M51.4062 39.8906C51.0177 39.8906 50.7031 40.2052 50.7031 40.5938V43.4062C50.7031 43.7948 51.0177 44.1094 51.4062 44.1094H53.5156V46.2188C53.5156 46.6073 53.8302 46.9219 54.2188 46.9219C54.6073 46.9219 54.9219 46.6073 54.9219 46.2188V40.5938C54.9219 40.2052 54.6073 39.8906 54.2188 39.8906C53.8302 39.8906 53.5156 40.2052 53.5156 40.5938V42.7031H52.1094V40.5938C52.1094 40.2052 51.7948 39.8906 51.4062 39.8906Z" fill="#0064FF"/>
</g>
</g>
<defs>
<filter id="filter0_d_16_1129" x="0" y="0" width="100" height="100" filterUnits="userSpaceOnUse" color-interpolation-filters="sRGB">
<feFlood flood-opacity="0" result="BackgroundImageFix"/>
<feColorMatrix in="SourceAlpha" type="matrix" values="0 0 0 0 0 0 0 0 0 0 0 0 0 0 0 0 0 0 127 0" result="hardAlpha"/>
<feOffset dy="8"/>
<feGaussianBlur stdDeviation="12"/>
<feComposite in2="hardAlpha" operator="out"/>
<feColorMatrix type="matrix" values="0 0 0 0 0.533333 0 0 0 0 0.533333 0 0 0 0 0.533333 0 0 0 0.15 0"/>
<feBlend mode="normal" in2="BackgroundImageFix" result="effect1_dropShadow_16_1129"/>
<feBlend mode="normal" in="SourceGraphic" in2="effect1_dropShadow_16_1129" result="shape"/>
</filter>
<clipPath id="clip0_16_1129">
<rect width="24" height="24" fill="white" transform="translate(38 30)"/>
</clipPath>
</defs>
</svg>
