<svg width="24" height="24" viewBox="0 0 24 24" fill="none" xmlns="http://www.w3.org/2000/svg">
<path d="M21.8906 11.2969H21.1875V9.1875C21.1875 4.14752 17.04 0 12 0C6.96002 0 2.8125 4.14752 2.8125 9.1875V11.2969H2.10938C0.946289 11.2969 0 12.2432 0 13.4062V16.2188C0 17.3818 0.946289 18.3281 2.10938 18.3281H3.51562C3.90417 18.3281 4.21875 18.0135 4.21875 17.625V9.1875C4.21875 8.45563 4.3277 7.70288 4.51849 7.03125H5.56476C6.39825 7.03125 7.15302 6.53687 7.4859 5.77203C8.27161 3.9743 10.0437 2.8125 12 2.8125C13.9563 2.8125 15.7284 3.9743 16.5134 5.7713C16.847 6.53687 17.6017 7.03125 18.4352 7.03125H19.4815C19.6723 7.70288 19.7812 8.45563 19.7812 9.1875V19.0781C19.7812 20.2412 18.7881 21.1875 17.625 21.1875H13.9799C13.6886 20.3708 12.9155 19.7812 12 19.7812C10.8369 19.7812 9.89062 20.7275 9.89062 21.8906C9.89062 23.0537 10.8369 24 12 24C12.9155 24 13.6886 23.4104 13.9799 22.5938H17.625C19.5634 22.5938 21.1875 21.0165 21.1875 19.0781V18.3281H21.8906C23.0537 18.3281 24 17.3818 24 16.2188V13.4062C24 12.2432 23.0537 11.2969 21.8906 11.2969Z" fill="#0064FF"/>
<path d="M9.02124 13.4062C8.8808 13.5276 7.07812 14.1024 7.07812 16.2188C7.07812 16.6073 7.3927 16.9219 7.78125 16.9219H10.5938C10.9823 16.9219 11.2969 16.6073 11.2969 16.2188C11.2969 15.8302 10.9823 15.5156 10.5938 15.5156H8.64844C8.95917 14.8929 9.48688 14.77 9.65021 14.6642C10.6659 14.1568 11.2969 13.1358 11.2969 12C11.2969 10.8369 10.3506 9.89062 9.1875 9.89062C8.02441 9.89062 7.07812 10.8369 7.07812 12C7.07812 12.3885 7.3927 12.7031 7.78125 12.7031C8.1698 12.7031 8.48438 12.3885 8.48438 12C8.48438 11.612 8.7995 11.2969 9.1875 11.2969C9.5755 11.2969 9.89062 11.612 9.89062 12C9.89062 12.5995 9.55756 13.1384 9.02124 13.4062Z" fill="#0064FF"/>
<path d="M13.4062 9.89062C13.0177 9.89062 12.7031 10.2052 12.7031 10.5938V13.4062C12.7031 13.7948 13.0177 14.1094 13.4062 14.1094H15.5156V16.2188C15.5156 16.6073 15.8302 16.9219 16.2188 16.9219C16.6073 16.9219 16.9219 16.6073 16.9219 16.2188V10.5938C16.9219 10.2052 16.6073 9.89062 16.2188 9.89062C15.8302 9.89062 15.5156 10.2052 15.5156 10.5938V12.7031H14.1094V10.5938C14.1094 10.2052 13.7948 9.89062 13.4062 9.89062Z" fill="#0064FF"/>
</svg>
