<svg width="16" height="13" viewBox="0 0 16 13" fill="none" xmlns="http://www.w3.org/2000/svg">
<path d="M15.3571 1.67043C15.4005 1.60985 15.3364 1.53163 15.2668 1.55858C14.7728 1.75008 14.2565 1.87928 13.7298 1.94295C14.3162 1.59261 14.7687 1.0593 15.0197 0.4279C15.0452 0.36358 14.975 0.306141 14.9144 0.339601C14.3694 0.640604 13.7816 0.857351 13.1709 0.98218C13.1454 0.987405 13.119 0.978703 13.1011 0.959769C12.6429 0.476262 12.0397 0.154336 11.3821 0.0430888C10.7108 -0.0704949 10.0207 0.041969 9.42012 0.362842C8.81955 0.683715 8.34248 1.19485 8.06371 1.81608C7.79865 2.40675 7.72713 3.06518 7.85786 3.69753C7.868 3.74659 7.8296 3.79291 7.77959 3.78981C6.59155 3.71602 5.43078 3.40002 4.36877 2.86085C3.30946 2.32304 2.37141 1.57487 1.61176 0.662472C1.57804 0.621979 1.51414 0.62722 1.48958 0.673834C1.2532 1.12238 1.12944 1.62233 1.12978 2.13045C1.12882 2.63624 1.25294 3.13441 1.49109 3.58062C1.72925 4.02683 2.07404 4.40723 2.49478 4.68795C2.04858 4.67581 1.61109 4.5655 1.21321 4.36551C1.16194 4.33973 1.10043 4.37643 1.1031 4.43376C1.13413 5.10068 1.37897 5.77023 1.80276 6.28392C2.25375 6.83058 2.87972 7.20468 3.57478 7.34295C3.30722 7.42438 3.02943 7.46731 2.74978 7.47045C2.59757 7.46867 2.44566 7.45744 2.29493 7.43683C2.23904 7.42919 2.1934 7.48228 2.21297 7.53519C2.42028 8.09581 2.78652 8.58499 3.26808 8.94207C3.78292 9.32383 4.40396 9.53561 5.04478 9.54795C3.96268 10.3994 2.62669 10.8641 1.24978 10.868C1.10829 10.8684 0.966875 10.8638 0.825788 10.8542C0.746282 10.8488 0.709716 10.9547 0.778247 10.9954C2.11982 11.7915 3.65322 12.2124 5.21728 12.2104C6.37205 12.2224 7.51763 12.0042 8.58711 11.5685C9.6566 11.1328 10.6285 10.4884 11.4462 9.67282C12.2638 8.85728 12.9107 7.88699 13.3492 6.81863C13.7876 5.75027 14.0088 4.60525 13.9998 3.45045V3.09058C13.9998 3.0669 14.011 3.04463 14.0299 3.03036C14.5386 2.64626 14.986 2.18768 15.3571 1.67043Z" fill="#919191"/>
</svg>
